<?xml version="1.0" standalone="no"?>
<!DOCTYPE svg PUBLIC "-//W3C//DTD SVG 1.1//EN" "http://www.w3.org/Graphics/SVG/1.1/DTD/svg11.dtd" >
<svg xmlns="http://www.w3.org/2000/svg" xmlns:xlink="http://www.w3.org/1999/xlink" version="1.1">
<metadata></metadata>
<defs>
<font id="iqosregular" horiz-adv-x="1331" >
<font-face units-per-em="2048" ascent="1638" descent="-410" />
<missing-glyph horiz-adv-x="464" />
<glyph unicode="&#xfb01;" horiz-adv-x="1394" d="M20 827v150l236 16v135q0 186 107.5 283.5t308.5 97.5h180v-176h-172q-236 0 -236 -217v-121h408v-168h-399v-827h-197v827h-236zM1022 1348q0 51 37.5 89t89.5 38q53 0 91 -37.5t38 -89.5q0 -53 -37.5 -90t-91.5 -37q-53 0 -90 37.5t-37 89.5zM1053 0v995h196v-995h-196 z" />
<glyph unicode="&#xfb02;" horiz-adv-x="1400" d="M20 827v150l236 16v135q0 186 107.5 283.5t308.5 97.5h180v-176h-172q-236 0 -236 -217v-121h408v-168h-399v-827h-197v827h-236zM1055 0v1509h196v-1509h-196z" />
<glyph horiz-adv-x="0" />
<glyph horiz-adv-x="682" />
<glyph horiz-adv-x="0" />
<glyph horiz-adv-x="0" />
<glyph unicode="&#xd;" horiz-adv-x="464" />
<glyph unicode=" "  horiz-adv-x="464" />
<glyph unicode="&#x09;" horiz-adv-x="464" />
<glyph unicode="&#xa0;" horiz-adv-x="464" />
<glyph unicode="!" horiz-adv-x="526" d="M129 109q0 54 39 93.5t94 39.5q56 0 95.5 -39t39.5 -94q0 -57 -39 -96.5t-96 -39.5q-56 0 -94.5 39.5t-38.5 96.5zM164 1458h196l-8 -1032h-178z" />
<glyph unicode="&#x22;" horiz-adv-x="897" d="M137 1458h197l-21 -639h-155zM563 1458h197l-19 -639h-157z" />
<glyph unicode="#" horiz-adv-x="1353" d="M119 381v164h194l68 368h-176v164h207l71 381h176l-71 -381h309l72 381h174l-72 -381h164v-164h-195l-67 -368h176v-164h-207l-72 -381h-174l72 381h-309l-72 -381h-176l72 381h-164zM489 545h310l67 368h-309z" />
<glyph unicode="$" d="M137 168l105 145q74 -71 184 -114t233 -43q142 0 232 63.5t90 179.5q0 54 -22.5 97t-61.5 71t-91 53t-110.5 42t-120 38t-120 42t-110.5 53.5t-91 72t-61.5 98.5t-22.5 132q0 166 112.5 265t303.5 118v280h186v-280q249 -27 393 -168l-98 -144q-155 136 -389 136 q-141 0 -224 -52.5t-83 -150.5q0 -52 27.5 -92t74.5 -66.5t108 -48t128.5 -42.5t134.5 -44.5t128 -58.5t108 -80t74.5 -114.5t27.5 -156.5q0 -179 -111 -286t-303 -131v-283h-186v281q-135 11 -253 60t-192 128z" />
<glyph unicode="%" horiz-adv-x="1974" d="M102 1100q0 164 108 274.5t275 110.5t275 -110.5t108 -274.5t-108 -274.5t-275 -110.5t-275 110.5t-108 274.5zM266 1100q0 -111 64 -173.5t155 -62.5q92 0 156 62.5t64 173.5t-64 172t-156 61q-91 0 -155 -61t-64 -172zM510 0l768 1458h186l-768 -1458h-186zM1104 358 q0 164 109 274.5t276 110.5q166 0 274.5 -110.5t108.5 -274.5q0 -163 -108.5 -274t-274.5 -111q-167 0 -276 111t-109 274zM1268 358q0 -111 64.5 -172t156.5 -61q91 0 155 61t64 172t-64 173.5t-155 62.5q-92 0 -156.5 -62.5t-64.5 -173.5z" />
<glyph unicode="&#x26;" horiz-adv-x="1460" d="M82 381q0 261 321 401q-34 34 -59.5 64.5t-55.5 76t-46.5 98.5t-16.5 109q0 147 111 251t291 104q177 0 286 -98.5t109 -253.5q0 -244 -330 -400l316 -323q92 116 178 264l153 -94q-110 -183 -206 -295l278 -285h-242l-155 160q-209 -187 -459 -187q-210 0 -341.5 114 t-131.5 294zM283 403q0 -109 78 -179t208 -70q170 0 322 131l-375 383q-233 -95 -233 -265zM424 1122q0 -71 39.5 -133t116.5 -139q123 60 185 125.5t62 148.5q0 79 -53 131t-147 52q-93 0 -148 -53.5t-55 -131.5z" />
<glyph unicode="'" horiz-adv-x="471" d="M137 1458h197l-21 -639h-155z" />
<glyph unicode="(" horiz-adv-x="774" d="M205 485q0 308 99.5 566t258.5 430l144 -84q-133 -162 -217 -406.5t-84 -505.5t84 -505t217 -406l-144 -84q-159 172 -258.5 429.5t-99.5 565.5z" />
<glyph unicode=")" horiz-adv-x="774" d="M68 -426q133 162 217 406t84 505t-84 505.5t-217 406.5l143 84q160 -172 260 -430t100 -566t-100 -565t-260 -430z" />
<glyph unicode="*" horiz-adv-x="958" d="M96 946l250 119l-250 123l82 141l240 -166l-19 295h162l-20 -295l241 166l82 -141l-239 -117l239 -125l-82 -141l-241 164l20 -295h-162l19 293l-240 -162z" />
<glyph unicode="+" horiz-adv-x="1024" d="M115 649v160h315v317h164v-317h315v-160h-315v-317h-164v317h-315z" />
<glyph unicode="," horiz-adv-x="464" d="M45 -299q157 150 174 289q-53 8 -88 41t-35 86q0 55 36 91t93 36q62 0 105 -46.5t43 -140.5q0 -118 -71 -234.5t-193 -201.5z" />
<glyph unicode="-" horiz-adv-x="786" d="M57 473v170h672v-170h-672z" />
<glyph unicode="." horiz-adv-x="454" d="M94 109q0 54 39 93.5t94 39.5t95 -39.5t40 -93.5q0 -57 -39.5 -96.5t-95.5 -39.5t-94.5 39.5t-38.5 96.5z" />
<glyph unicode="/" horiz-adv-x="972" d="M0 -504l758 1962h203l-758 -1962h-203z" />
<glyph unicode="0" horiz-adv-x="1339" d="M127 729q0 223 61.5 392t185.5 266.5t296 97.5q173 0 297 -97.5t185.5 -266.5t61.5 -392t-61.5 -392t-185.5 -266.5t-297 -97.5q-172 0 -296 97.5t-185.5 266.5t-61.5 392zM328 729q0 -275 89.5 -422t252.5 -147t252.5 147t89.5 422t-89.5 422t-252.5 147t-252.5 -147 t-89.5 -422z" />
<glyph unicode="1" horiz-adv-x="825" d="M53 1075v187l430 196h158v-1458h-199v1255z" />
<glyph unicode="2" horiz-adv-x="1069" d="M55 1372q192 113 430 113q139 0 245.5 -44.5t170.5 -139t64 -228.5q0 -81 -21.5 -154.5t-69 -148t-102 -140.5t-141.5 -157l-279 -297h635v-176h-893v152l365 399q89 97 138 154.5t92 121t60 115.5t17 109q0 117 -77.5 184.5t-215.5 67.5q-168 0 -344 -93z" />
<glyph unicode="3" horiz-adv-x="1181" d="M66 154l104 145q81 -67 184.5 -106t212.5 -39q144 0 227 68.5t83 193.5q0 116 -72.5 178.5t-194.5 62.5h-200v164h145q130 0 205.5 64.5t75.5 179.5t-76 177.5t-207 62.5q-194 0 -367 -131l-96 145q93 79 216.5 122.5t256.5 43.5q214 0 342.5 -105.5t128.5 -287.5 q0 -114 -50 -202t-138 -136q103 -45 167 -135t64 -222q0 -198 -137 -311t-362 -113q-148 0 -285 49t-227 132z" />
<glyph unicode="4" horiz-adv-x="1271" d="M68 299v147l706 1012h240v-987h188v-172h-188v-299h-197v299h-749zM297 471h520v741z" />
<glyph unicode="5" horiz-adv-x="1167" d="M76 160l104 139q171 -145 379 -145q145 0 230 74.5t85 207.5q0 130 -84.5 201.5t-254.5 71.5h-373v749h837v-176h-651v-408h184q267 0 405 -114t138 -322q0 -215 -137.5 -340t-364.5 -125q-141 0 -276 51.5t-221 135.5z" />
<glyph unicode="6" horiz-adv-x="1243" d="M102 471q0 103 33 202.5t115 223.5l373 561h213l-340 -512q76 27 155 27q101 0 191.5 -36.5t157.5 -100.5t106 -156.5t39 -200.5q0 -219 -149 -362.5t-371 -143.5q-226 0 -374.5 140t-148.5 358zM301 477q0 -144 92 -233.5t232 -89.5q139 0 231 90.5t92 234.5t-92.5 235 t-230.5 91q-140 0 -232 -91t-92 -237z" />
<glyph unicode="7" horiz-adv-x="1079" d="M43 1282v176h985v-145l-563 -1313h-209l557 1282h-770z" />
<glyph unicode="8" horiz-adv-x="1251" d="M104 397q0 135 74.5 230.5t190.5 138.5q-104 43 -165 129t-61 197q0 119 65.5 209.5t174.5 137t242 46.5q134 0 243 -46.5t174.5 -137t65.5 -209.5q0 -111 -61.5 -197t-167.5 -129q117 -43 192.5 -138.5t75.5 -230.5q0 -130 -72 -228t-189.5 -147t-260.5 -49 q-142 0 -259.5 49t-189.5 147t-72 228zM307 414q0 -65 28.5 -117.5t75 -83.5t101.5 -47t113 -16q80 0 150 27t118.5 89t48.5 148t-48.5 147.5t-118.5 88t-150 26.5q-58 0 -113 -16t-102 -46.5t-75 -82.5t-28 -117zM336 1077q0 -106 80 -170.5t209 -64.5q131 0 210.5 64.5 t79.5 170.5q0 110 -82 172t-208 62q-125 0 -207 -62t-82 -172z" />
<glyph unicode="9" horiz-adv-x="1243" d="M98 979q0 219 149 362.5t371 143.5q226 0 374.5 -140t148.5 -358q0 -103 -33 -202.5t-115 -223.5l-372 -561h-213l340 514q-76 -27 -156 -27q-101 0 -191.5 36t-157.5 99.5t-106 156.5t-39 200zM295 979q0 -144 92.5 -235t230.5 -91q140 0 232 91t92 237q0 144 -92 234 t-232 90q-138 0 -230.5 -91t-92.5 -235z" />
<glyph unicode=":" horiz-adv-x="454" d="M94 109q0 54 39 93.5t94 39.5t95 -39.5t40 -93.5q0 -57 -39.5 -96.5t-95.5 -39.5t-94.5 39.5t-38.5 96.5zM94 817q0 56 39 95.5t94 39.5t95 -40t40 -95t-39.5 -94t-95.5 -39q-55 0 -94 39t-39 94z" />
<glyph unicode=";" horiz-adv-x="464" d="M45 -299q157 150 174 289q-53 8 -88 41t-35 86q0 55 36 91t93 36q62 0 105 -46.5t43 -140.5q0 -118 -71 -234.5t-193 -201.5zM94 817q0 56 39 95.5t94 39.5t95 -40t40 -95t-39.5 -94t-95.5 -39q-55 0 -94 39t-39 94z" />
<glyph unicode="&#x3c;" horiz-adv-x="1024" d="M123 655v148l778 334v-176l-559 -232l559 -231v-176z" />
<glyph unicode="=" horiz-adv-x="1024" d="M115 457v159h794v-159h-794zM115 844v157h794v-157h-794z" />
<glyph unicode="&#x3e;" horiz-adv-x="1024" d="M123 322v176l559 231l-559 232v176l778 -334v-148z" />
<glyph unicode="?" horiz-adv-x="1021" d="M53 1376q195 109 430 109q207 0 332 -94t125 -275q0 -55 -14.5 -106.5t-33.5 -87.5t-52.5 -75t-57.5 -61t-61 -53l-158 -131l-6 -203h-176l-4 209q-2 37 7 55.5t44 47.5l143 123q54 45 85 77t57 83t26 106q0 98 -70.5 151.5t-193.5 53.5q-170 0 -358 -93zM338 109 q0 54 40 93.5t95 39.5t95 -39.5t40 -93.5q0 -57 -39.5 -96.5t-95.5 -39.5t-95.5 39.5t-39.5 96.5z" />
<glyph unicode="@" horiz-adv-x="1916" d="M98 598q0 186 65.5 350t179.5 282t276 186.5t348 68.5q242 0 435.5 -106.5t305 -304.5t111.5 -453q0 -221 -94.5 -337t-266.5 -116q-101 0 -169.5 38t-96.5 111q-46 -71 -118.5 -110t-162.5 -39q-166 0 -277.5 123.5t-111.5 312.5q0 188 112 312t277 124q168 0 265 -127 v105h196v-576q0 -129 109 -129q78 0 116.5 73t38.5 235q0 312 -182.5 500t-486.5 188q-155 0 -284.5 -55t-217 -150.5t-136 -226t-48.5 -279.5q0 -312 189.5 -499t518.5 -187q238 0 432 96l80 -153q-210 -119 -516 -119q-196 0 -361.5 63.5t-281 176t-180 273t-64.5 349.5z M721 604q0 -115 64 -186.5t167 -71.5q104 0 168 71t64 187q0 114 -64.5 186t-167.5 72t-167 -72t-64 -186z" />
<glyph unicode="A" horiz-adv-x="1390" d="M49 0l561 1458h166l565 -1458h-213l-106 285h-657l-107 -285h-209zM430 461h524l-262 696z" />
<glyph unicode="B" horiz-adv-x="1349" d="M184 0v1458h557q209 0 321 -101t112 -272q0 -111 -47.5 -196.5t-133.5 -126.5q117 -39 181.5 -136t64.5 -229q0 -175 -115 -286t-313 -111h-627zM385 174h383q128 0 196 64t68 172q0 116 -67 181.5t-197 65.5h-383v-483zM385 829h326q126 0 194 60t68 170t-67.5 167.5 t-194.5 57.5h-326v-455z" />
<glyph unicode="C" horiz-adv-x="1470" d="M98 729q0 170 53 312.5t146 239.5t221 150.5t277 53.5q193 0 350.5 -81t249.5 -228l-158 -107q-78 111 -192.5 168t-247.5 57q-215 0 -354.5 -151.5t-139.5 -413.5t139.5 -413.5t354.5 -151.5q133 0 247.5 57t192.5 168l156 -104q-94 -148 -251.5 -230t-346.5 -82 q-149 0 -277 53.5t-221 150.5t-146 239.5t-53 312.5z" />
<glyph unicode="D" horiz-adv-x="1527" d="M184 0v1458h478q229 0 402 -86.5t269.5 -252.5t96.5 -390q0 -228 -96.5 -393.5t-269 -250.5t-402.5 -85h-478zM385 180h264q128 0 232 33.5t181 99.5t119 172t42 244q0 178 -74 303.5t-202 185.5t-298 60h-264v-1098z" />
<glyph unicode="E" horiz-adv-x="1222" d="M184 0v1458h908v-180h-707v-442h647v-179h-647v-477h727v-180h-928z" />
<glyph unicode="F" horiz-adv-x="1148" d="M184 0v1458h875v-180h-674v-506h623v-176h-623v-596h-201z" />
<glyph unicode="G" horiz-adv-x="1622" d="M98 723q0 221 92 394.5t258 270.5t377 97q189 0 353.5 -79t261.5 -222l-156 -113q-176 227 -446 227q-109 0 -205.5 -37t-170 -106.5t-116.5 -178t-43 -243.5q0 -260 147 -417.5t375 -157.5q142 0 263.5 63.5t173.5 165.5v223h-406v166h608v-776h-174l-10 174 q-81 -90 -206 -145.5t-275 -55.5q-145 0 -273.5 54t-223 150t-149.5 237.5t-55 308.5z" />
<glyph unicode="H" horiz-adv-x="1525" d="M184 0v1458h201v-612h756v612h200v-1458h-200v659h-756v-659h-201z" />
<glyph unicode="I" horiz-adv-x="585" d="M193 0v1458h200v-1458h-200z" />
<glyph unicode="J" horiz-adv-x="1060" d="M55 63l64 170q152 -73 299 -73q268 0 268 299v999h201v-1012q0 -225 -113.5 -348t-333.5 -123q-100 0 -206 24.5t-179 63.5z" />
<glyph unicode="K" horiz-adv-x="1370" d="M184 0v1458h201v-612h193q31 0 45 7.5t28 29.5l402 575h225l-481 -704l516 -754h-232l-434 625q-14 22 -29 29.5t-49 7.5h-184v-662h-201z" />
<glyph unicode="L" horiz-adv-x="1138" d="M184 0v1458h201v-1278h678v-180h-879z" />
<glyph unicode="M" horiz-adv-x="1767" d="M184 0v1458h191l508 -805l510 805h190v-1458h-192v1112l-443 -702h-131l-440 704v-1114h-193z" />
<glyph unicode="N" horiz-adv-x="1599" d="M184 0v1458h189l850 -1136v1136h192v-1458h-188l-850 1137v-1137h-193z" />
<glyph unicode="O" horiz-adv-x="1687" d="M98 729q0 217 98.5 390.5t269 269.5t378.5 96t378 -96t268.5 -269.5t98.5 -390.5t-98.5 -390.5t-268.5 -269.5t-378 -96t-378.5 96t-269 269.5t-98.5 390.5zM303 729q0 -251 153.5 -408t387.5 -157t387 157t153 408t-153 408t-387 157t-387.5 -157t-153.5 -408z" />
<glyph unicode="P" horiz-adv-x="1273" d="M184 0v1458h531q232 0 359.5 -111t127.5 -323t-126 -322t-357 -110h-334v-592h-201zM385 766h326q137 0 212.5 65t75.5 193t-75.5 193t-212.5 65h-326v-516z" />
<glyph unicode="Q" horiz-adv-x="1687" d="M98 729q0 217 98.5 390.5t269 269.5t378.5 96t378 -96t268.5 -269.5t98.5 -390.5q0 -297 -180 -506l197 -223h-224l-96 111q-193 -138 -442 -138q-208 0 -378.5 96t-269 269.5t-98.5 390.5zM303 729q0 -251 153.5 -408t387.5 -157q178 0 311 94l-301 342l125 111 l297 -336q108 142 108 354q0 251 -153 408t-387 157t-387.5 -157t-153.5 -408z" />
<glyph unicode="R" horiz-adv-x="1345" d="M184 0v1458h529q225 0 355 -106t130 -308q0 -162 -86 -263t-240 -134l388 -647h-226l-370 633h-279v-633h-201zM385 805h332q133 0 205.5 62t72.5 177t-73 178.5t-205 63.5h-332v-481z" />
<glyph unicode="S" horiz-adv-x="1212" d="M72 168l104 145q74 -71 185 -114t235 -43q141 0 230 63.5t89 179.5q0 54 -22.5 97t-61.5 71t-91 53t-110.5 42t-120 38t-120 42t-110.5 53.5t-91 72t-61.5 98.5t-22.5 132q0 186 138 286.5t366 100.5q144 0 274 -42.5t218 -129.5l-99 -144q-155 136 -389 136 q-141 0 -224 -52.5t-83 -150.5q0 -52 27.5 -92t74.5 -66.5t108 -48t128 -42.5t134.5 -44.5t128.5 -58.5t108 -80t74.5 -114.5t27.5 -156.5q0 -203 -141 -313.5t-377 -110.5q-159 0 -300 51t-226 142z" />
<glyph unicode="T" horiz-adv-x="1255" d="M70 1278v180h1118v-180h-459v-1278h-203v1278h-456z" />
<glyph unicode="U" horiz-adv-x="1497" d="M172 516v942h203v-913q0 -174 102 -278.5t273 -104.5q177 0 275.5 103.5t98.5 279.5v913h199v-942q0 -249 -156 -396t-417 -147q-169 0 -299.5 65.5t-204.5 189.5t-74 288z" />
<glyph unicode="V" horiz-adv-x="1382" d="M49 1458h213l430 -1147l430 1147h211l-561 -1458h-160z" />
<glyph unicode="W" horiz-adv-x="2160" d="M49 1458h213l361 -1126l372 1126h174l361 -1126l371 1126h210l-493 -1458h-174l-367 1120l-372 -1120h-175z" />
<glyph unicode="X" horiz-adv-x="1353" d="M63 1458h230l387 -573l373 573h225l-481 -723l501 -735h-231l-395 586l-377 -586h-225l483 739z" />
<glyph unicode="Y" horiz-adv-x="1292" d="M23 1458h221l405 -762l402 762h219l-522 -962v-496h-201v496z" />
<glyph unicode="Z" horiz-adv-x="1175" d="M78 0v147l762 1131h-758v180h1010v-145l-764 -1133h774v-180h-1024z" />
<glyph unicode="[" horiz-adv-x="774" d="M205 -496v1954h508v-172h-320v-1608h320v-174h-508z" />
<glyph unicode="\" horiz-adv-x="972" d="M14 1458h201l758 -1962h-201z" />
<glyph unicode="]" horiz-adv-x="774" d="M63 -322h320v1608h-320v172h506v-1954h-506v174z" />
<glyph unicode="^" horiz-adv-x="1024" d="M117 885l317 573h156l319 -573h-180l-217 403l-217 -403h-178z" />
<glyph unicode="_" horiz-adv-x="892" d="M0 -139h893v-170h-893v170z" />
<glyph unicode="`" horiz-adv-x="737" d="M102 1415l107 148l426 -314l-82 -121z" />
<glyph unicode="a" horiz-adv-x="1236" d="M86 498q0 228 136 376t337 148q219 0 338 -174v147h197v-995h-197v147q-119 -174 -338 -174q-201 0 -337 148.5t-136 376.5zM285 498q0 -155 86.5 -250.5t222.5 -95.5q138 0 224.5 95t86.5 251q0 155 -86.5 249.5t-224.5 94.5q-136 0 -222.5 -94.5t-86.5 -249.5z" />
<glyph unicode="b" horiz-adv-x="1236" d="M143 0v1509h197v-661q119 174 338 174q200 0 335.5 -148t135.5 -376t-135.5 -376.5t-335.5 -148.5q-219 0 -338 174v-147h-197zM332 498q0 -155 86.5 -250.5t222.5 -95.5t222.5 95.5t86.5 250.5t-86.5 249.5t-222.5 94.5t-222.5 -94.5t-86.5 -249.5z" />
<glyph unicode="c" horiz-adv-x="1081" d="M82 498q0 145 61 263t181 189.5t278 71.5q135 0 247.5 -52.5t176.5 -142.5l-125 -122q-53 65 -130.5 99t-164.5 34q-145 0 -235 -93.5t-90 -246.5t88.5 -247.5t236.5 -94.5q88 0 164.5 35t130.5 100l123 -123q-62 -90 -173.5 -142.5t-246.5 -52.5q-235 0 -378.5 149 t-143.5 376z" />
<glyph unicode="d" horiz-adv-x="1236" d="M86 498q0 228 136 376t337 148q219 0 338 -174v661h197v-1509h-197v147q-119 -174 -338 -174q-201 0 -337 148.5t-136 376.5zM285 498q0 -155 86.5 -250.5t222.5 -95.5q138 0 224.5 95t86.5 251q0 155 -86.5 249.5t-224.5 94.5q-136 0 -222.5 -94.5t-86.5 -249.5z" />
<glyph unicode="e" horiz-adv-x="1163" d="M82 496q0 232 143 379t359 147q210 0 351.5 -141t141.5 -349q0 -34 -8 -88h-786q15 -136 106.5 -216.5t233.5 -80.5q90 0 173.5 33t137.5 86l104 -129q-63 -72 -180.5 -118t-247.5 -46q-117 0 -216 40t-167 110t-106.5 166.5t-38.5 206.5zM285 584h596 q-20 129 -100 199.5t-197 70.5q-119 0 -199 -70.5t-100 -199.5z" />
<glyph unicode="f" horiz-adv-x="905" d="M20 827v150l236 16v135q0 186 107.5 283.5t308.5 97.5h180v-176h-172q-236 0 -236 -217v-121h408v-168h-399v-827h-197v827h-236z" />
<glyph unicode="g" horiz-adv-x="1193" d="M66 -307l118 123q72 -73 176.5 -117.5t212.5 -44.5q134 0 216.5 64.5t82.5 175.5q0 73 -39 133t-106 98q-85 -29 -172 -29q-204 0 -338.5 131t-134.5 332q0 200 134.5 331.5t338.5 131.5q129 0 236 -55q45 28 120 28h201v-164h-166q84 -120 84 -272q0 -103 -38 -191 t-107 -151q82 -56 132 -143t50 -195q0 -183 -135.5 -291t-358.5 -108q-164 0 -299.5 59.5t-207.5 153.5zM274 559q0 -129 80.5 -207t200.5 -78t201.5 78t81.5 207q0 127 -81.5 205t-201.5 78t-200.5 -77.5t-80.5 -205.5z" />
<glyph unicode="h" horiz-adv-x="1165" d="M143 0v1509h195v-628q54 65 134 103t179 38q167 0 274 -103t107 -288v-631h-196v596q0 113 -64.5 176.5t-171.5 63.5q-77 0 -146.5 -35t-113.5 -103v-698h-197z" />
<glyph unicode="i" horiz-adv-x="489" d="M117 1348q0 51 37.5 89t89.5 38q54 0 91.5 -37.5t37.5 -89.5q0 -53 -37.5 -90t-91.5 -37q-52 0 -89.5 37.5t-37.5 89.5zM147 0v995h197v-995h-197z" />
<glyph unicode="j" horiz-adv-x="489" d="M-186 -487l36 170q73 -25 142 -25q79 0 117 39.5t38 130.5v1167h197v-1188q0 -167 -83 -247t-236 -80q-126 0 -211 33zM117 1348q0 51 37.5 89t89.5 38q54 0 91.5 -37.5t37.5 -89.5q0 -53 -37.5 -90t-91.5 -37q-52 0 -89.5 37.5t-37.5 89.5z" />
<glyph unicode="k" horiz-adv-x="1103" d="M143 0v1509h197v-905h166q23 0 34.5 7.5t22.5 27.5l268 356h222l-351 -469l357 -526h-230l-264 395q-15 22 -27.5 29.5t-41.5 7.5h-156v-432h-197z" />
<glyph unicode="l" horiz-adv-x="493" d="M150 0v1509h196v-1509h-196z" />
<glyph unicode="m" horiz-adv-x="1826" d="M143 0v995h185l2 -125q52 69 132 110.5t179 41.5q110 0 196.5 -48t131.5 -138q50 81 144 133.5t208 52.5q164 0 268.5 -104t104.5 -287v-631h-197v596q0 111 -61.5 175.5t-163.5 64.5q-76 0 -146.5 -35.5t-115.5 -104.5q4 -46 4 -65v-631h-197v596q0 112 -61.5 176 t-165.5 64q-75 0 -140.5 -35t-109.5 -103v-698h-197z" />
<glyph unicode="n" horiz-adv-x="1165" d="M143 0v995h185l2 -125q54 68 137 110t184 42q167 0 274 -103.5t107 -287.5v-631h-196v596q0 113 -64.5 176.5t-171.5 63.5q-77 0 -146.5 -35t-113.5 -103v-698h-197z" />
<glyph unicode="o" horiz-adv-x="1200" d="M82 496q0 227 146.5 376.5t371.5 149.5q149 0 268 -69t184.5 -189t65.5 -268q0 -224 -146 -372.5t-372 -148.5q-148 0 -267 68t-185 187t-66 266zM281 496q0 -151 91 -244.5t228 -93.5q139 0 229.5 93t90.5 245q0 153 -91.5 247.5t-228.5 94.5t-228 -94.5t-91 -247.5z " />
<glyph unicode="p" horiz-adv-x="1236" d="M143 -496v1491h197v-147q119 174 338 174q200 0 335.5 -148t135.5 -376t-135.5 -376.5t-335.5 -148.5q-219 0 -338 174v-643h-197zM332 498q0 -155 86.5 -250.5t222.5 -95.5t222.5 95.5t86.5 250.5t-86.5 249.5t-222.5 94.5t-222.5 -94.5t-86.5 -249.5z" />
<glyph unicode="q" horiz-adv-x="1236" d="M86 498q0 228 136 376t337 148q219 0 338 -174v147h197v-1491h-197v643q-119 -174 -338 -174q-201 0 -337 148.5t-136 376.5zM285 498q0 -155 86.5 -250.5t222.5 -95.5q138 0 224.5 95t86.5 251q0 155 -86.5 249.5t-224.5 94.5q-136 0 -222.5 -94.5t-86.5 -249.5z" />
<glyph unicode="r" horiz-adv-x="763" d="M143 0v995h191v-141q57 78 147.5 123t190.5 45h37v-186h-19q-225 0 -350 -131v-705h-197z" />
<glyph unicode="s" horiz-adv-x="954" d="M68 106l86 144q66 -49 152.5 -77t174.5 -28t144.5 35.5t56.5 98.5q0 43 -32.5 73t-84.5 48t-115 33.5t-126 36.5t-115 50.5t-84.5 82.5t-32.5 126q0 137 105.5 215t285.5 78q108 0 210 -29t165 -84l-80 -139q-119 86 -291 86q-92 0 -146 -30.5t-54 -92.5 q0 -35 25.5 -60.5t67 -40t94.5 -30t108 -28.5t108 -37t94.5 -54.5t67 -82t25.5 -117.5q0 -142 -103 -222.5t-282 -80.5q-125 0 -237 34t-187 92z" />
<glyph unicode="t" horiz-adv-x="993" d="M16 827v144l95 10q83 10 112 47t29 117v192h197v-342h419v-168h-419v-465q0 -208 194 -208q125 0 217 102l96 -133q-62 -71 -151 -110.5t-197 -39.5q-162 0 -259 98t-97 267v489h-236z" />
<glyph unicode="u" horiz-adv-x="1146" d="M133 385v610h197v-583q0 -122 66 -188t177 -66t177.5 66t66.5 188v583h197v-610q0 -194 -123.5 -303t-317.5 -109t-317 109t-123 303z" />
<glyph unicode="v" horiz-adv-x="1069" d="M18 995h209l308 -784l307 784h209l-414 -995h-203z" />
<glyph unicode="w" horiz-adv-x="1642" d="M18 995h205l260 -745l258 745h162l258 -745l260 745h201l-358 -995h-181l-260 715l-262 -715h-184z" />
<glyph unicode="x" horiz-adv-x="1103" d="M45 0l381 504l-381 491h234l274 -364l274 364h228l-379 -497l381 -498h-236l-274 367l-273 -367h-229z" />
<glyph unicode="y" horiz-adv-x="1161" d="M133 365v630h197v-598q0 -112 63.5 -175.5t169.5 -63.5q76 0 145 36t113 105v696h197v-1069q0 -204 -123.5 -325t-355.5 -121q-231 0 -394 112l64 158q69 -46 156 -72t170 -26q140 0 214 74.5t74 207.5v183q-53 -65 -132.5 -104.5t-178.5 -39.5q-167 0 -273 103.5 t-106 288.5z" />
<glyph unicode="z" horiz-adv-x="1003" d="M96 827v168h801v-147l-545 -680h566v-168h-820v147l545 680h-547z" />
<glyph unicode="{" horiz-adv-x="784" d="M113 403v158l71 10q62 9 90.5 39.5t28.5 89.5q0 36 -31.5 197t-31.5 231q0 159 99 244.5t275 85.5h113v-172h-88q-114 0 -163.5 -42t-49.5 -144q0 -57 28.5 -207t28.5 -199q0 -76 -37.5 -132t-113.5 -81q151 -50 151 -213q0 -47 -28.5 -197t-28.5 -208q0 -101 49.5 -143 t163.5 -42h88v-174h-113q-176 0 -275 85.5t-99 246.5q0 70 31.5 230t31.5 198q0 60 -28.5 89.5t-90.5 37.5z" />
<glyph unicode="|" horiz-adv-x="600" d="M205 -496v1954h190v-1954h-190z" />
<glyph unicode="}" horiz-adv-x="784" d="M55 -322h88q114 0 164.5 42t50.5 143q0 58 -29.5 208t-29.5 197q0 76 38 131.5t114 81.5q-76 25 -114 81.5t-38 131.5q0 49 29.5 199t29.5 207q0 101 -50.5 143.5t-164.5 42.5h-88v172h115q175 0 275 -85.5t100 -244.5q0 -70 -33 -231t-33 -197q0 -59 29.5 -89.5 t91.5 -39.5l72 -10v-158l-72 -12q-62 -8 -91.5 -38t-29.5 -89q0 -38 33 -198t33 -230q0 -160 -100 -246t-275 -86h-115v174z" />
<glyph unicode="~" horiz-adv-x="1024" d="M113 594q11 129 73.5 203.5t161.5 74.5q42 0 80.5 -14.5t67 -35t55.5 -40.5t57 -34.5t60 -14.5q90 0 110 131h133q-11 -129 -73 -202.5t-162 -73.5q-51 0 -98.5 21.5t-77.5 47t-69 47t-75 21.5q-90 0 -110 -131h-133z" />
<glyph unicode="&#xa1;" horiz-adv-x="526" d="M129 887q0 56 39 95.5t94 39.5q57 0 96 -39.5t39 -95.5q0 -55 -39.5 -95t-95.5 -40q-55 0 -94 40t-39 95zM164 -463l10 1032h178l8 -1032h-196z" />
<glyph unicode="&#xa2;" d="M188 727q0 200 116 344.5t314 173.5v230h187v-230q219 -36 325 -188l-122 -123q-55 65 -132 100t-163 35q-146 0 -236 -94t-90 -248q0 -152 89 -247t237 -95q88 0 164.5 35t130.5 100l122 -123q-106 -152 -325 -188v-229h-187v229q-198 30 -314 172.5t-116 345.5z" />
<glyph unicode="&#xa3;" d="M147 653v166h168v236q0 210 129 320t355 110q220 0 407 -84l-55 -164q-166 66 -336 66q-303 0 -303 -275v-209h479v-166h-479v-477h698v-176h-1038v176h143v477h-168z" />
<glyph unicode="&#xa4;" d="M115 319l188 191q-61 99 -61 219q0 122 61 221l-188 189l125 125l184 -185q113 76 242 76q128 0 241 -76l185 185l125 -125l-189 -189q62 -100 62 -221q0 -119 -62 -219l189 -191l-125 -124l-185 184q-113 -76 -241 -76q-129 0 -242 76l-184 -184zM428 729 q0 -110 68 -181t170 -71t169.5 71t67.5 181t-67.5 181t-169.5 71t-170 -71t-68 -181z" />
<glyph unicode="&#xa5;" d="M57 1458h222l391 -721l385 721h219l-438 -784h284v-148h-352v-127h352v-149h-352v-250h-203v250h-346v149h346v127h-346v148h277z" />
<glyph unicode="&#xa6;" horiz-adv-x="600" d="M205 319h190v-815h-190v815zM205 643v815h190v-815h-190z" />
<glyph unicode="&#xa7;" horiz-adv-x="972" d="M74 -393l78 141q64 -51 152.5 -79.5t174.5 -28.5q117 0 178.5 51t61.5 137q0 63 -35 113t-90.5 84.5t-123.5 66t-135.5 66t-123 76t-90.5 104.5t-35 143q0 74 29 133t75.5 94.5t101.5 54.5t111 19h7q-163 75 -243.5 158t-80.5 207q0 151 112.5 244.5t303.5 93.5 q115 0 216 -36.5t163 -102.5l-82 -125q-110 104 -295 104q-112 0 -175 -47t-63 -127q0 -57 35 -104t90.5 -80.5t123 -65.5t135.5 -68.5t123.5 -80t90.5 -109t35 -147.5q0 -125 -80.5 -204t-208.5 -97q143 -68 216 -151.5t73 -215.5q0 -162 -108.5 -255t-305.5 -93 q-117 0 -228.5 34t-182.5 93zM266 496q0 -81 60.5 -134t169.5 -53q100 0 161.5 47.5t61.5 130.5q0 79 -59.5 133t-170.5 54q-101 0 -162 -47t-61 -131z" />
<glyph unicode="&#xa8;" horiz-adv-x="931" d="M102 1311q0 51 37.5 89t89.5 38t88.5 -37.5t36.5 -89.5q0 -53 -36.5 -90t-88.5 -37q-53 0 -90 37t-37 90zM578 1311q0 52 37 89.5t90 37.5q52 0 88 -37.5t36 -89.5q0 -53 -36 -90t-88 -37q-54 0 -90.5 37t-36.5 90z" />
<glyph unicode="&#xa9;" horiz-adv-x="1712" d="M98 729q0 154 59.5 294t160.5 241t242 161t296 60t295.5 -60t241.5 -161t161 -241t60 -294q0 -153 -60 -293t-161 -241.5t-241.5 -161.5t-295.5 -60t-296 60t-242 161.5t-160.5 241.5t-59.5 293zM227 729q0 -173 82.5 -318t227.5 -230t319 -85q129 0 245.5 50t200.5 135 t133.5 202t49.5 246q0 130 -49.5 247t-133.5 201.5t-200.5 134.5t-245.5 50q-174 0 -318.5 -84.5t-227.5 -229.5t-83 -319zM492 729q0 180 106 289.5t266 109.5q102 0 187 -43t135 -120l-103 -72q-40 56 -98 84.5t-121 28.5q-101 0 -170 -75.5t-69 -201.5q0 -123 68 -199.5 t173 -76.5q64 0 121.5 28.5t95.5 85.5l101 -69q-51 -79 -136 -123.5t-184 -44.5q-160 0 -266 109.5t-106 289.5z" />
<glyph unicode="&#xaa;" horiz-adv-x="993" d="M66 1063q0 184 108 303t268 119q167 0 265 -135l6 112h168v-798h-168l-6 114q-95 -135 -267 -135q-158 0 -266 118t-108 302zM246 1063q0 -115 64 -186.5t167 -71.5t168.5 71.5t65.5 186.5q0 117 -64.5 187.5t-169.5 70.5q-103 0 -167 -71t-64 -187z" />
<glyph unicode="&#xab;" horiz-adv-x="1273" d="M76 481v117l450 403l117 -118l-387 -342l387 -344l-117 -117zM612 481v117l451 403l115 -118l-385 -342l387 -344l-117 -117z" />
<glyph unicode="&#xac;" horiz-adv-x="1024" d="M115 844v157h794v-544h-161v387h-633z" />
<glyph unicode="&#xad;" horiz-adv-x="786" d="M57 473v170h672v-170h-672z" />
<glyph unicode="&#xae;" horiz-adv-x="880" d="M61 1106q0 158 110.5 268.5t268.5 110.5t268.5 -110.5t110.5 -268.5q0 -156 -110.5 -267.5t-268.5 -111.5t-268.5 111.5t-110.5 267.5zM143 1106q0 -128 86 -214.5t211 -86.5t211 86.5t86 214.5t-86 214.5t-211 86.5q-126 0 -211.5 -86t-85.5 -215zM305 915v383h148 q61 0 98 -31.5t37 -90.5q0 -92 -82 -115l86 -146h-78l-78 140h-61v-140h-70zM375 1114h78q30 0 47.5 16t17.5 46q0 59 -65 59h-78v-121z" />
<glyph unicode="&#xaf;" horiz-adv-x="860" d="M102 1251v156h656v-156h-656z" />
<glyph unicode="&#xb0;" horiz-adv-x="884" d="M102 1151q0 140 98 237t242 97t242 -97t98 -237t-98 -237t-242 -97t-242 97t-98 237zM254 1151q0 -86 54.5 -141.5t133.5 -55.5t134 55.5t55 141.5q0 85 -55 141t-134 56t-133.5 -56t-54.5 -141z" />
<glyph unicode="&#xb1;" horiz-adv-x="1024" d="M123 186v160h778v-160h-778zM123 811v160h307v307h164v-307h307v-160h-307v-307h-164v307h-307z" />
<glyph unicode="&#xb2;" horiz-adv-x="694" d="M49 1640q118 70 264 70q133 0 216 -65.5t83 -188.5q0 -93 -47 -172t-149 -184l-144 -150h351v-131h-545v113l211 227q94 101 134 161t40 118q0 63 -42.5 100t-117.5 37q-99 0 -201 -55z" />
<glyph unicode="&#xb3;" horiz-adv-x="761" d="M57 915l78 109q102 -86 234 -86q77 0 121.5 36.5t44.5 100.5q0 60 -39.5 92.5t-104.5 32.5h-121v123h88q72 0 112 34t40 93q0 60 -41 92.5t-113 32.5q-106 0 -213 -76l-67 111q57 47 133 73.5t156 26.5q132 0 212 -64.5t80 -175.5q0 -137 -102 -200q129 -66 129 -211 q0 -119 -85.5 -187.5t-223.5 -68.5q-90 0 -176.5 30t-141.5 82z" />
<glyph unicode="&#xb4;" horiz-adv-x="737" d="M102 1249l426 314l107 -148l-451 -287z" />
<glyph unicode="&#xb5;" horiz-adv-x="1167" d="M143 -496v1491h197v-598q0 -112 63 -175.5t168 -63.5q76 0 144 35.5t112 103.5v698h197v-995h-184l-2 125q-47 -68 -123.5 -110t-171.5 -42q-125 0 -203 66v-535h-197z" />
<glyph unicode="&#xb6;" horiz-adv-x="1159" d="M113 1063q0 167 121 281t301 114h137v-1954h-137v1162q-181 0 -301.5 114.5t-120.5 282.5zM838 -496v1954h137v-1954h-137z" />
<glyph unicode="&#xb7;" horiz-adv-x="491" d="M113 559q0 54 39 93.5t94 39.5q56 0 95.5 -39t39.5 -94q0 -57 -39 -96t-96 -39q-56 0 -94.5 39t-38.5 96z" />
<glyph unicode="&#xb8;" horiz-adv-x="628" d="M102 -438l17 119q78 -19 149 -19q117 0 117 66q0 41 -52 57t-177 18l37 252h137l-25 -157q221 -21 221 -174q0 -85 -66 -134t-181 -49q-109 0 -177 21z" />
<glyph unicode="&#xb9;" horiz-adv-x="563" d="M49 1438v139l262 117h119v-875h-147v727z" />
<glyph unicode="&#xba;" horiz-adv-x="966" d="M66 1061q0 181 117.5 302.5t301.5 121.5q183 0 300.5 -121.5t117.5 -302.5q0 -180 -117.5 -299t-300.5 -119q-184 0 -301.5 119t-117.5 299zM246 1061q0 -114 67.5 -184t171.5 -70q103 0 170.5 70.5t67.5 183.5q0 114 -67.5 186t-170.5 72q-104 0 -171.5 -72t-67.5 -186z " />
<glyph unicode="&#xbb;" horiz-adv-x="1273" d="M94 197l387 344l-387 342l117 118l448 -403v-117l-448 -401zM631 197l385 344l-385 342l114 118l451 -403v-117l-451 -401z" />
<glyph unicode="&#xbc;" horiz-adv-x="1746" d="M49 1202v139l262 117h119v-874h-147v727zM330 0l768 1458h186l-768 -1458h-186zM987 168v108l408 598h184v-581h109v-125h-109v-168h-147v168h-445zM1153 293h279v409z" />
<glyph unicode="&#xbd;" horiz-adv-x="1785" d="M49 1202v139l262 117h119v-874h-147v727zM330 0l768 1458h186l-768 -1458h-186zM1141 821q118 70 264 70q133 0 216 -65.5t83 -188.5q0 -93 -47.5 -172t-149.5 -184l-143 -150h350v-131h-545v113l211 227q95 101 134.5 160.5t39.5 117.5q0 64 -42.5 101t-116.5 37 q-97 0 -201 -56z" />
<glyph unicode="&#xbe;" horiz-adv-x="1945" d="M57 680l78 108q102 -86 234 -86q77 0 121.5 37t44.5 101q0 60 -39.5 92.5t-104.5 32.5h-121v122h88q72 0 112 34t40 93q0 60 -41 92.5t-113 32.5q-108 0 -213 -75l-67 110q57 47 133.5 74t155.5 27q132 0 212 -64.5t80 -175.5q0 -138 -102 -201q129 -66 129 -211 q0 -119 -85.5 -187.5t-223.5 -68.5q-90 0 -176.5 30.5t-141.5 82.5zM528 0l768 1458h187l-768 -1458h-187zM1186 168v108l407 598h185v-581h108v-125h-108v-168h-148v168h-444zM1352 293h278v409z" />
<glyph unicode="&#xbf;" horiz-adv-x="1021" d="M84 -96q0 69 18.5 128t55 107.5t66.5 78.5t77 69l158 131l8 203h174l6 -209q1 -37 -8 -55.5t-43 -47.5l-145 -123q-40 -35 -63.5 -58t-51 -57.5t-40.5 -71.5t-13 -79q0 -99 70.5 -152t195.5 -53q174 0 356 92l64 -163q-192 -109 -430 -109q-205 0 -330 94t-125 275z M416 911q0 57 38.5 96.5t94.5 39.5q57 0 96 -39.5t39 -96.5q0 -55 -39 -94t-96 -39q-55 0 -94 39.5t-39 93.5z" />
<glyph unicode="&#xc0;" horiz-adv-x="1390" d="M49 0l561 1458h166l565 -1458h-213l-106 285h-657l-107 -285h-209zM395 1833l107 147l426 -313l-82 -119zM430 461h524l-262 696z" />
<glyph unicode="&#xc1;" horiz-adv-x="1390" d="M49 0l561 1458h166l565 -1458h-213l-106 285h-657l-107 -285h-209zM430 461h524l-262 696zM461 1667l426 313l106 -147l-450 -285z" />
<glyph unicode="&#xc2;" horiz-adv-x="1390" d="M49 0l561 1458h166l565 -1458h-213l-106 285h-657l-107 -285h-209zM313 1575l308 385h147l307 -385h-196l-185 240l-184 -240h-197zM430 461h524l-262 696z" />
<glyph unicode="&#xc3;" horiz-adv-x="1390" d="M49 0l561 1458h166l565 -1458h-213l-106 285h-657l-107 -285h-209zM319 1634q3 120 51.5 197.5t135.5 77.5q55 0 120.5 -30.5t124.5 -60.5t97 -30q43 0 61 30.5t25 84.5h131q-3 -119 -51 -196t-135 -77q-55 0 -120.5 30t-124 59.5t-95.5 29.5q-43 0 -61 -30t-25 -85h-134 zM430 461h524l-262 696z" />
<glyph unicode="&#xc4;" horiz-adv-x="1390" d="M49 0l561 1458h166l565 -1458h-213l-106 285h-657l-107 -285h-209zM330 1761q0 51 37.5 89t89.5 38t88.5 -37.5t36.5 -89.5q0 -53 -36.5 -90t-88.5 -37q-53 0 -90 37t-37 90zM430 461h524l-262 696zM805 1761q0 52 37 89.5t90 37.5q52 0 88.5 -37.5t36.5 -89.5 q0 -53 -36.5 -90t-88.5 -37q-54 0 -90.5 37t-36.5 90z" />
<glyph unicode="&#xc5;" horiz-adv-x="1390" d="M49 0l561 1458h166l565 -1458h-213l-106 285h-657l-107 -285h-209zM428 1815q0 109 78 183.5t188 74.5t188.5 -74.5t78.5 -183.5q0 -111 -78.5 -185t-188.5 -74t-188 74t-78 185zM430 461h524l-262 696zM569 1815q0 -56 36 -91.5t89 -35.5t89 35.5t36 91.5t-36 91.5 t-89 35.5t-89 -35.5t-36 -91.5z" />
<glyph unicode="&#xc6;" horiz-adv-x="2078" d="M12 0l922 1458h1014v-180h-707v-442h647v-179h-647v-477h727v-180h-928v328h-594l-204 -328h-230zM557 504h483v772z" />
<glyph unicode="&#xc7;" horiz-adv-x="1470" d="M98 729q0 170 53 312.5t146 239.5t221 150.5t277 53.5q193 0 350.5 -81t249.5 -228l-158 -107q-78 111 -192.5 168t-247.5 57q-215 0 -354.5 -151.5t-139.5 -413.5t139.5 -413.5t354.5 -151.5q133 0 247.5 57t192.5 168l156 -104q-87 -134 -225.5 -215.5t-305.5 -94.5 l-12 -77q221 -21 221 -174q0 -85 -66.5 -134t-181.5 -49q-109 0 -176 21l17 119q78 -19 149 -19q117 0 117 66q0 41 -52.5 57t-177.5 18l25 172q-181 17 -322.5 112t-223 262t-81.5 380z" />
<glyph unicode="&#xc8;" horiz-adv-x="1222" d="M184 0v1458h908v-180h-707v-442h647v-179h-647v-477h727v-180h-928zM352 1833l107 147l426 -313l-82 -119z" />
<glyph unicode="&#xc9;" horiz-adv-x="1222" d="M184 0v1458h908v-180h-707v-442h647v-179h-647v-477h727v-180h-928zM416 1667l426 313l106 -147l-450 -285z" />
<glyph unicode="&#xca;" horiz-adv-x="1222" d="M184 0v1458h908v-180h-707v-442h647v-179h-647v-477h727v-180h-928zM268 1575l307 385h148l307 -385h-196l-185 240l-184 -240h-197z" />
<glyph unicode="&#xcb;" horiz-adv-x="1222" d="M184 0v1458h908v-180h-707v-442h647v-179h-647v-477h727v-180h-928zM287 1761q0 51 37.5 89t89.5 38t88.5 -37.5t36.5 -89.5q0 -53 -36.5 -90t-88.5 -37t-89.5 37t-37.5 90zM762 1761q0 52 37 89.5t90 37.5q52 0 88.5 -37.5t36.5 -89.5q0 -53 -36.5 -90t-88.5 -37 q-54 0 -90.5 37t-36.5 90z" />
<glyph unicode="&#xcc;" horiz-adv-x="585" d="M-4 1833l106 147l426 -313l-82 -119zM193 0v1458h200v-1458h-200z" />
<glyph unicode="&#xcd;" horiz-adv-x="585" d="M59 1667l426 313l107 -147l-451 -285zM193 0v1458h200v-1458h-200z" />
<glyph unicode="&#xce;" horiz-adv-x="585" d="M-86 1575l307 385h148l307 -385h-197l-184 240l-184 -240h-197zM193 0v1458h200v-1458h-200z" />
<glyph unicode="&#xcf;" horiz-adv-x="585" d="M-70 1761q0 52 37 89.5t90 37.5q52 0 88.5 -37.5t36.5 -89.5q0 -53 -36.5 -90t-88.5 -37q-54 0 -90.5 37t-36.5 90zM193 0v1458h200v-1458h-200zM406 1761q0 52 36.5 89.5t89.5 37.5q52 0 88.5 -37.5t36.5 -89.5q0 -53 -36.5 -90t-88.5 -37q-54 0 -90 37t-36 90z" />
<glyph unicode="&#xd0;" horiz-adv-x="1552" d="M23 643v172h186v643h477q229 0 402 -86.5t269.5 -252.5t96.5 -390q0 -228 -96.5 -393.5t-269 -250.5t-402.5 -85h-477v643h-186zM410 180h264q128 0 231.5 33.5t180.5 99.5t119 172t42 244q0 266 -156.5 407.5t-416.5 141.5h-264v-463h444v-172h-444v-463z" />
<glyph unicode="&#xd1;" horiz-adv-x="1599" d="M184 0v1458h189l850 -1136v1136h192v-1458h-188l-850 1137v-1137h-193zM426 1634q3 120 51 197.5t135 77.5q55 0 120.5 -30.5t124.5 -60.5t97 -30q43 0 61 30.5t25 84.5h131q-3 -119 -51 -196t-135 -77q-55 0 -120.5 30t-124 59.5t-95.5 29.5q-43 0 -61 -30t-25 -85h-133 z" />
<glyph unicode="&#xd2;" horiz-adv-x="1687" d="M98 729q0 217 98.5 390.5t269 269.5t378.5 96t378 -96t268.5 -269.5t98.5 -390.5t-98.5 -390.5t-268.5 -269.5t-378 -96t-378.5 96t-269 269.5t-98.5 390.5zM303 729q0 -251 153.5 -408t387.5 -157t387 157t153 408t-153 408t-387 157t-387.5 -157t-153.5 -408zM545 1833 l106 147l426 -313l-82 -119z" />
<glyph unicode="&#xd3;" horiz-adv-x="1687" d="M98 729q0 217 98.5 390.5t269 269.5t378.5 96t378 -96t268.5 -269.5t98.5 -390.5t-98.5 -390.5t-268.5 -269.5t-378 -96t-378.5 96t-269 269.5t-98.5 390.5zM303 729q0 -251 153.5 -408t387.5 -157t387 157t153 408t-153 408t-387 157t-387.5 -157t-153.5 -408zM610 1667 l426 313l107 -147l-451 -285z" />
<glyph unicode="&#xd4;" horiz-adv-x="1687" d="M98 729q0 217 98.5 390.5t269 269.5t378.5 96t378 -96t268.5 -269.5t98.5 -390.5t-98.5 -390.5t-268.5 -269.5t-378 -96t-378.5 96t-269 269.5t-98.5 390.5zM303 729q0 -251 153.5 -408t387.5 -157t387 157t153 408t-153 408t-387 157t-387.5 -157t-153.5 -408zM463 1575 l307 385h148l307 -385h-197l-184 240l-185 -240h-196z" />
<glyph unicode="&#xd5;" horiz-adv-x="1687" d="M98 729q0 217 98.5 390.5t269 269.5t378.5 96t378 -96t268.5 -269.5t98.5 -390.5t-98.5 -390.5t-268.5 -269.5t-378 -96t-378.5 96t-269 269.5t-98.5 390.5zM303 729q0 -251 153.5 -408t387.5 -157t387 157t153 408t-153 408t-387 157t-387.5 -157t-153.5 -408zM469 1634 q3 120 51 197.5t135 77.5q55 0 120.5 -30.5t124.5 -60.5t97 -30q43 0 61 30.5t25 84.5h131q-3 -119 -51 -196t-135 -77q-55 0 -120.5 30t-124 59.5t-95.5 29.5q-43 0 -61 -30t-25 -85h-133z" />
<glyph unicode="&#xd6;" horiz-adv-x="1687" d="M98 729q0 217 98.5 390.5t269 269.5t378.5 96t378 -96t268.5 -269.5t98.5 -390.5t-98.5 -390.5t-268.5 -269.5t-378 -96t-378.5 96t-269 269.5t-98.5 390.5zM303 729q0 -251 153.5 -408t387.5 -157t387 157t153 408t-153 408t-387 157t-387.5 -157t-153.5 -408zM479 1761 q0 51 37.5 89t89.5 38t88.5 -37.5t36.5 -89.5q0 -53 -36.5 -90t-88.5 -37t-89.5 37t-37.5 90zM954 1761q0 52 37 89.5t90 37.5q52 0 88.5 -37.5t36.5 -89.5q0 -53 -36.5 -90t-88.5 -37q-54 0 -90.5 37t-36.5 90z" />
<glyph unicode="&#xd7;" horiz-adv-x="1024" d="M174 504l225 225l-225 225l113 113l225 -225l225 225l113 -113l-225 -225l225 -225l-113 -113l-225 225l-225 -225z" />
<glyph unicode="&#xd8;" horiz-adv-x="1687" d="M96 729q0 217 98.5 390.5t269 269.5t378.5 96q199 0 366 -90l109 153l137 -92l-111 -156q116 -103 180 -250t64 -321q0 -217 -98.5 -390.5t-268.5 -269.5t-378 -96q-197 0 -369 93l-108 -156l-134 92l109 156q-115 104 -179.5 250t-64.5 321zM301 729q0 -250 154 -410 l643 916q-115 59 -256 59q-234 0 -387.5 -157t-153.5 -408zM586 223q115 -59 256 -59q234 0 387 157t153 408q0 252 -153 408z" />
<glyph unicode="&#xd9;" horiz-adv-x="1497" d="M172 516v942h203v-913q0 -174 102 -278.5t273 -104.5q177 0 275.5 103.5t98.5 279.5v913h199v-942q0 -249 -156 -396t-417 -147q-169 0 -299.5 65.5t-204.5 189.5t-74 288zM451 1833l106 147l426 -313l-82 -119z" />
<glyph unicode="&#xda;" horiz-adv-x="1497" d="M172 516v942h203v-913q0 -174 102 -278.5t273 -104.5q177 0 275.5 103.5t98.5 279.5v913h199v-942q0 -249 -156 -396t-417 -147q-169 0 -299.5 65.5t-204.5 189.5t-74 288zM516 1667l426 313l107 -147l-451 -285z" />
<glyph unicode="&#xdb;" horiz-adv-x="1497" d="M172 516v942h203v-913q0 -174 102 -278.5t273 -104.5q177 0 275.5 103.5t98.5 279.5v913h199v-942q0 -249 -156 -396t-417 -147q-169 0 -299.5 65.5t-204.5 189.5t-74 288zM369 1575l307 385h147l307 -385h-196l-184 240l-185 -240h-196z" />
<glyph unicode="&#xdc;" horiz-adv-x="1497" d="M172 516v942h203v-913q0 -174 102 -278.5t273 -104.5q177 0 275.5 103.5t98.5 279.5v913h199v-942q0 -249 -156 -396t-417 -147q-169 0 -299.5 65.5t-204.5 189.5t-74 288zM385 1761q0 51 37.5 89t89.5 38t88.5 -37.5t36.5 -89.5q0 -53 -36.5 -90t-88.5 -37t-89.5 37 t-37.5 90zM860 1761q0 52 37 89.5t90 37.5q52 0 88.5 -37.5t36.5 -89.5q0 -53 -36.5 -90t-88.5 -37q-54 0 -90.5 37t-36.5 90z" />
<glyph unicode="&#xdd;" horiz-adv-x="1292" d="M23 1458h221l405 -762l402 762h219l-522 -962v-496h-201v496zM414 1667l426 313l106 -147l-450 -285z" />
<glyph unicode="&#xde;" horiz-adv-x="1273" d="M184 0v1458h201v-278h330q232 0 359.5 -111t127.5 -324q0 -212 -126 -322t-357 -110h-334v-313h-201zM385 487h326q137 0 212.5 65t75.5 193t-76 193.5t-212 65.5h-326v-517z" />
<glyph unicode="&#xdf;" horiz-adv-x="1298" d="M143 0v1063q0 217 134 345t360 128q218 0 346.5 -115t128.5 -288q0 -109 -54.5 -199t-152.5 -141q139 -39 221 -137t82 -250q0 -197 -130 -315t-337 -118q-165 0 -280 56l49 166q105 -45 223 -45q129 0 203 71.5t74 196.5q0 130 -83 197t-227 67h-184v168h129 q122 0 196 71t74 187q0 111 -75.5 178.5t-204.5 67.5q-139 0 -217 -82t-78 -234v-1038h-197z" />
<glyph unicode="&#xe0;" horiz-adv-x="1236" d="M86 498q0 228 136 376t337 148q219 0 338 -174v147h197v-995h-197v147q-119 -174 -338 -174q-201 0 -337 148.5t-136 376.5zM285 498q0 -155 86.5 -250.5t222.5 -95.5q138 0 224.5 95t86.5 251q0 155 -86.5 249.5t-224.5 94.5q-136 0 -222.5 -94.5t-86.5 -249.5z M295 1415l106 148l426 -314l-82 -121z" />
<glyph unicode="&#xe1;" horiz-adv-x="1236" d="M86 498q0 228 136 376t337 148q219 0 338 -174v147h197v-995h-197v147q-119 -174 -338 -174q-201 0 -337 148.5t-136 376.5zM285 498q0 -155 86.5 -250.5t222.5 -95.5q138 0 224.5 95t86.5 251q0 155 -86.5 249.5t-224.5 94.5q-136 0 -222.5 -94.5t-86.5 -249.5z M360 1249l426 314l107 -148l-451 -287z" />
<glyph unicode="&#xe2;" horiz-adv-x="1236" d="M86 498q0 228 136 376t337 148q219 0 338 -174v147h197v-995h-197v147q-119 -174 -338 -174q-201 0 -337 148.5t-136 376.5zM213 1145l307 385h148l307 -385h-197l-184 239l-184 -239h-197zM285 498q0 -155 86.5 -250.5t222.5 -95.5q138 0 224.5 95t86.5 251 q0 155 -86.5 249.5t-224.5 94.5q-136 0 -222.5 -94.5t-86.5 -249.5z" />
<glyph unicode="&#xe3;" horiz-adv-x="1236" d="M86 498q0 228 136 376t337 148q219 0 338 -174v147h197v-995h-197v147q-119 -174 -338 -174q-201 0 -337 148.5t-136 376.5zM219 1223q3 120 51.5 196t135.5 76q55 0 120.5 -30t124.5 -59.5t97 -29.5q43 0 61 30t25 85h131q-3 -120 -51.5 -196t-135.5 -76 q-55 0 -120.5 29.5t-124 59t-95.5 29.5q-43 0 -61 -29.5t-25 -84.5h-133zM285 498q0 -155 86.5 -250.5t222.5 -95.5q138 0 224.5 95t86.5 251q0 155 -86.5 249.5t-224.5 94.5q-136 0 -222.5 -94.5t-86.5 -249.5z" />
<glyph unicode="&#xe4;" horiz-adv-x="1236" d="M86 498q0 228 136 376t337 148q219 0 338 -174v147h197v-995h-197v147q-119 -174 -338 -174q-201 0 -337 148.5t-136 376.5zM229 1311q0 51 37.5 89t89.5 38t88.5 -37.5t36.5 -89.5q0 -53 -36.5 -90t-88.5 -37t-89.5 37t-37.5 90zM285 498q0 -155 86.5 -250.5 t222.5 -95.5q138 0 224.5 95t86.5 251q0 155 -86.5 249.5t-224.5 94.5q-136 0 -222.5 -94.5t-86.5 -249.5zM705 1311q0 52 36.5 89.5t89.5 37.5q52 0 88.5 -37.5t36.5 -89.5q0 -53 -36.5 -90t-88.5 -37q-54 0 -90 37t-36 90z" />
<glyph unicode="&#xe5;" horiz-adv-x="1236" d="M86 498q0 228 136 376t337 148q219 0 338 -174v147h197v-995h-197v147q-119 -174 -338 -174q-201 0 -337 148.5t-136 376.5zM285 498q0 -155 86.5 -250.5t222.5 -95.5q138 0 224.5 95t86.5 251q0 155 -86.5 249.5t-224.5 94.5q-136 0 -222.5 -94.5t-86.5 -249.5z M328 1393q0 109 78 183.5t188 74.5t188 -74.5t78 -183.5t-78 -183.5t-188 -74.5t-188 74.5t-78 183.5zM469 1393q0 -56 36 -91.5t89 -35.5t89 35.5t36 91.5t-36 91.5t-89 35.5t-89 -35.5t-36 -91.5z" />
<glyph unicode="&#xe6;" horiz-adv-x="1857" d="M82 303q0 153 116 234t300 81q144 0 278 -40v38q0 107 -72 173.5t-188 66.5q-180 0 -317 -117l-95 131q169 152 412 152q127 0 224.5 -46t156.5 -128q68 84 166.5 129t214.5 45q210 0 350.5 -141t140.5 -349q0 -48 -6 -88h-786q15 -136 106.5 -216.5t233.5 -80.5 q89 0 173 33.5t136 85.5l107 -129q-63 -72 -181 -118t-249 -46q-125 0 -228 45.5t-172 126.5q-79 -79 -192 -125.5t-236 -46.5q-178 0 -285.5 91t-107.5 239zM279 309q0 -83 64.5 -131.5t166.5 -48.5q92 0 178 39t137 100q-34 75 -43 166q-120 47 -252 47 q-116 0 -183.5 -43.5t-67.5 -128.5zM979 584h594q-20 129 -99 199.5t-198 70.5t-199 -70.5t-98 -199.5z" />
<glyph unicode="&#xe7;" horiz-adv-x="1081" d="M82 498q0 145 61 263t181 189.5t278 71.5q135 0 247.5 -52.5t176.5 -142.5l-125 -122q-53 65 -130.5 99t-164.5 34q-145 0 -235 -93.5t-90 -246.5t88.5 -247.5t236.5 -94.5q88 0 164.5 35t130.5 100l123 -123q-55 -79 -148.5 -130t-207.5 -61l-13 -79q222 -21 222 -174 q0 -85 -66.5 -134t-181.5 -49q-109 0 -176 21l16 119q78 -19 149 -19q117 0 117 66q0 41 -52 57t-177 18l24 174q-136 16 -238 88t-156 184t-54 249z" />
<glyph unicode="&#xe8;" horiz-adv-x="1163" d="M82 496q0 232 143 379t359 147q210 0 351.5 -141t141.5 -349q0 -34 -8 -88h-786q15 -136 106.5 -216.5t233.5 -80.5q90 0 173.5 33t137.5 86l104 -129q-63 -72 -180.5 -118t-247.5 -46q-117 0 -216 40t-167 110t-106.5 166.5t-38.5 206.5zM285 584h596 q-20 129 -100 199.5t-197 70.5q-119 0 -199 -70.5t-100 -199.5zM285 1415l106 148l426 -314l-82 -121z" />
<glyph unicode="&#xe9;" horiz-adv-x="1163" d="M82 496q0 232 143 379t359 147q210 0 351.5 -141t141.5 -349q0 -34 -8 -88h-786q15 -136 106.5 -216.5t233.5 -80.5q90 0 173.5 33t137.5 86l104 -129q-63 -72 -180.5 -118t-247.5 -46q-117 0 -216 40t-167 110t-106.5 166.5t-38.5 206.5zM285 584h596 q-20 129 -100 199.5t-197 70.5q-119 0 -199 -70.5t-100 -199.5zM350 1249l426 314l107 -148l-451 -287z" />
<glyph unicode="&#xea;" horiz-adv-x="1163" d="M82 496q0 232 143 379t359 147q210 0 351.5 -141t141.5 -349q0 -34 -8 -88h-786q15 -136 106.5 -216.5t233.5 -80.5q90 0 173.5 33t137.5 86l104 -129q-63 -72 -180.5 -118t-247.5 -46q-117 0 -216 40t-167 110t-106.5 166.5t-38.5 206.5zM203 1145l307 385h147l308 -385 h-197l-184 239l-185 -239h-196zM285 584h596q-20 129 -100 199.5t-197 70.5q-119 0 -199 -70.5t-100 -199.5z" />
<glyph unicode="&#xeb;" horiz-adv-x="1163" d="M82 496q0 232 143 379t359 147q210 0 351.5 -141t141.5 -349q0 -34 -8 -88h-786q15 -136 106.5 -216.5t233.5 -80.5q90 0 173.5 33t137.5 86l104 -129q-63 -72 -180.5 -118t-247.5 -46q-117 0 -216 40t-167 110t-106.5 166.5t-38.5 206.5zM219 1311q0 51 37.5 89t89.5 38 t88.5 -37.5t36.5 -89.5q0 -53 -36.5 -90t-88.5 -37t-89.5 37t-37.5 90zM285 584h596q-20 129 -100 199.5t-197 70.5q-119 0 -199 -70.5t-100 -199.5zM694 1311q0 52 37 89.5t90 37.5q52 0 88.5 -37.5t36.5 -89.5q0 -53 -36.5 -90t-88.5 -37q-54 0 -90.5 37t-36.5 90z" />
<glyph unicode="&#xec;" horiz-adv-x="489" d="M-31 1413l107 150l362 -265l-84 -118zM147 0v995h197v-995h-197z" />
<glyph unicode="&#xed;" horiz-adv-x="489" d="M51 1298l363 265l106 -150l-385 -233zM147 0v995h197v-995h-197z" />
<glyph unicode="&#xee;" horiz-adv-x="489" d="M-63 1157l239 373h139l240 -373h-170l-139 236l-140 -236h-169zM147 0v995h197v-995h-197z" />
<glyph unicode="&#xef;" horiz-adv-x="489" d="M-35 1348q0 47 32.5 81.5t82.5 34.5q48 0 80.5 -34.5t32.5 -81.5q0 -48 -32 -82.5t-81 -34.5q-50 0 -82.5 34.5t-32.5 82.5zM147 0v995h197v-995h-197zM295 1348q0 47 33 81.5t82 34.5q48 0 81 -34.5t33 -81.5q0 -48 -32.5 -82.5t-81.5 -34.5t-82 34.5t-33 82.5z" />
<glyph unicode="&#xf0;" horiz-adv-x="1210" d="M82 487q0 219 133.5 358.5t345.5 139.5q111 0 203.5 -44.5t150.5 -125.5q-46 256 -245 404l-285 -140l-49 101l221 108q-135 70 -338 117l111 127q246 -57 405 -158l285 139l47 -102l-229 -111q151 -128 212.5 -304t61.5 -402q0 -306 -142 -461.5t-378 -155.5 q-229 0 -369.5 143.5t-140.5 366.5zM281 485q0 -148 89.5 -238.5t225.5 -90.5q144 0 230.5 91.5t86.5 244.5q0 146 -90.5 236.5t-228.5 90.5q-136 0 -224.5 -92t-88.5 -242z" />
<glyph unicode="&#xf1;" horiz-adv-x="1165" d="M143 0v995h185l2 -125q54 68 137 110t184 42q167 0 274 -103.5t107 -287.5v-631h-196v596q0 113 -64.5 176.5t-171.5 63.5q-77 0 -146.5 -35t-113.5 -103v-698h-197zM217 1223q3 120 51 196t135 76q55 0 120.5 -30t124.5 -59.5t97 -29.5q43 0 61 30t25 85h132 q-3 -120 -51.5 -196t-135.5 -76q-55 0 -120.5 29.5t-124 59t-95.5 29.5q-43 0 -61 -29.5t-25 -84.5h-133z" />
<glyph unicode="&#xf2;" horiz-adv-x="1200" d="M82 496q0 227 146.5 376.5t371.5 149.5q149 0 268 -69t184.5 -189t65.5 -268q0 -224 -146 -372.5t-372 -148.5q-148 0 -267 68t-185 187t-66 266zM281 496q0 -151 91 -244.5t228 -93.5q139 0 229.5 93t90.5 245q0 153 -91.5 247.5t-228.5 94.5t-228 -94.5t-91 -247.5z M303 1415l107 148l426 -314l-82 -121z" />
<glyph unicode="&#xf3;" horiz-adv-x="1200" d="M82 496q0 227 146.5 376.5t371.5 149.5q149 0 268 -69t184.5 -189t65.5 -268q0 -224 -146 -372.5t-372 -148.5q-148 0 -267 68t-185 187t-66 266zM281 496q0 -151 91 -244.5t228 -93.5q139 0 229.5 93t90.5 245q0 153 -91.5 247.5t-228.5 94.5t-228 -94.5t-91 -247.5z M367 1249l426 314l106 -148l-450 -287z" />
<glyph unicode="&#xf4;" horiz-adv-x="1200" d="M82 496q0 227 146.5 376.5t371.5 149.5q149 0 268 -69t184.5 -189t65.5 -268q0 -224 -146 -372.5t-372 -148.5q-148 0 -267 68t-185 187t-66 266zM221 1145l307 385h148l307 -385h-197l-184 239l-184 -239h-197zM281 496q0 -151 91 -244.5t228 -93.5q139 0 229.5 93 t90.5 245q0 153 -91.5 247.5t-228.5 94.5t-228 -94.5t-91 -247.5z" />
<glyph unicode="&#xf5;" horiz-adv-x="1200" d="M82 496q0 227 146.5 376.5t371.5 149.5q149 0 268 -69t184.5 -189t65.5 -268q0 -224 -146 -372.5t-372 -148.5q-148 0 -267 68t-185 187t-66 266zM227 1223q3 120 51.5 196t135.5 76q55 0 120.5 -30t124.5 -59.5t97 -29.5q43 0 61 30t25 85h131q-3 -120 -51.5 -196 t-135.5 -76q-55 0 -120.5 29.5t-124 59t-95.5 29.5q-43 0 -61 -29.5t-25 -84.5h-133zM281 496q0 -151 91 -244.5t228 -93.5q139 0 229.5 93t90.5 245q0 153 -91.5 247.5t-228.5 94.5t-228 -94.5t-91 -247.5z" />
<glyph unicode="&#xf6;" horiz-adv-x="1200" d="M82 496q0 227 146.5 376.5t371.5 149.5q149 0 268 -69t184.5 -189t65.5 -268q0 -224 -146 -372.5t-372 -148.5q-148 0 -267 68t-185 187t-66 266zM238 1311q0 51 37.5 89t89.5 38t88 -37.5t36 -89.5q0 -53 -36 -90t-88 -37q-53 0 -90 37t-37 90zM281 496 q0 -151 91 -244.5t228 -93.5q139 0 229.5 93t90.5 245q0 153 -91.5 247.5t-228.5 94.5t-228 -94.5t-91 -247.5zM713 1311q0 52 37 89.5t90 37.5q52 0 88.5 -37.5t36.5 -89.5q0 -53 -36.5 -90t-88.5 -37q-54 0 -90.5 37t-36.5 90z" />
<glyph unicode="&#xf7;" horiz-adv-x="1024" d="M115 649v160h794v-160h-794zM399 412q0 43 34 77.5t79 34.5t79 -34.5t34 -77.5q0 -46 -33.5 -79.5t-79.5 -33.5t-79.5 33.5t-33.5 79.5zM399 1047q0 45 33.5 78.5t79.5 33.5t79.5 -33.5t33.5 -78.5q0 -46 -33.5 -79.5t-79.5 -33.5t-79.5 33.5t-33.5 79.5z" />
<glyph unicode="&#xf8;" horiz-adv-x="1200" d="M82 496q0 227 146.5 376.5t371.5 149.5q141 0 250 -59l74 102l106 -72l-74 -106q77 -71 119.5 -172.5t42.5 -218.5q0 -224 -146 -372.5t-372 -148.5q-133 0 -246 58l-71 -103l-107 72l74 102q-79 72 -123.5 173t-44.5 219zM268 496q0 -149 86 -248l400 567 q-67 37 -154 37q-143 0 -237.5 -98.5t-94.5 -257.5zM451 176q74 -33 149 -33q143 0 237.5 98t94.5 255q0 148 -84 245z" />
<glyph unicode="&#xf9;" horiz-adv-x="1146" d="M133 385v610h197v-583q0 -122 66 -188t177 -66t177.5 66t66.5 188v583h197v-610q0 -194 -123.5 -303t-317.5 -109t-317 109t-123 303zM274 1415l107 148l426 -314l-82 -121z" />
<glyph unicode="&#xfa;" horiz-adv-x="1146" d="M133 385v610h197v-583q0 -122 66 -188t177 -66t177.5 66t66.5 188v583h197v-610q0 -194 -123.5 -303t-317.5 -109t-317 109t-123 303zM340 1249l426 314l106 -148l-450 -287z" />
<glyph unicode="&#xfb;" horiz-adv-x="1146" d="M133 385v610h197v-583q0 -122 66 -188t177 -66t177.5 66t66.5 188v583h197v-610q0 -194 -123.5 -303t-317.5 -109t-317 109t-123 303zM193 1145l307 385h147l307 -385h-196l-185 239l-184 -239h-196z" />
<glyph unicode="&#xfc;" horiz-adv-x="1146" d="M133 385v610h197v-583q0 -122 66 -188t177 -66t177.5 66t66.5 188v583h197v-610q0 -194 -123.5 -303t-317.5 -109t-317 109t-123 303zM209 1311q0 51 37.5 89t89.5 38t88.5 -37.5t36.5 -89.5q0 -53 -36.5 -90t-88.5 -37t-89.5 37t-37.5 90zM684 1311q0 52 37 89.5 t90 37.5q52 0 88.5 -37.5t36.5 -89.5q0 -53 -36.5 -90t-88.5 -37q-54 0 -90.5 37t-36.5 90z" />
<glyph unicode="&#xfd;" horiz-adv-x="1161" d="M133 365v630h197v-598q0 -112 63.5 -175.5t169.5 -63.5q76 0 145 36t113 105v696h197v-1069q0 -204 -123.5 -325t-355.5 -121q-231 0 -394 112l64 158q69 -46 156 -72t170 -26q140 0 214 74.5t74 207.5v183q-53 -65 -132.5 -104.5t-178.5 -39.5q-167 0 -273 103.5 t-106 288.5zM348 1249l426 314l107 -148l-451 -287z" />
<glyph unicode="&#xfe;" horiz-adv-x="1236" d="M143 -496v1954h197v-610q119 174 338 174q200 0 335.5 -148t135.5 -376t-135.5 -376.5t-335.5 -148.5q-219 0 -338 174v-643h-197zM332 498q0 -155 86.5 -250.5t222.5 -95.5t222.5 95.5t86.5 250.5t-86.5 249.5t-222.5 94.5t-222.5 -94.5t-86.5 -249.5z" />
<glyph unicode="&#xff;" horiz-adv-x="1161" d="M133 365v630h197v-598q0 -112 63.5 -175.5t169.5 -63.5q76 0 145 36t113 105v696h197v-1069q0 -204 -123.5 -325t-355.5 -121q-231 0 -394 112l64 158q69 -46 156 -72t170 -26q140 0 214 74.5t74 207.5v183q-53 -65 -132.5 -104.5t-178.5 -39.5q-167 0 -273 103.5 t-106 288.5zM217 1311q0 51 37.5 89t89.5 38t88.5 -37.5t36.5 -89.5q0 -53 -36.5 -90t-88.5 -37t-89.5 37t-37.5 90zM692 1311q0 52 37 89.5t90 37.5q52 0 88.5 -37.5t36.5 -89.5q0 -53 -36.5 -90t-88.5 -37q-54 0 -90.5 37t-36.5 90z" />
<glyph unicode="&#x100;" horiz-adv-x="1390" d="M49 0l561 1458h166l565 -1458h-213l-106 285h-657l-107 -285h-209zM367 1661v156h655v-156h-655zM430 461h524l-262 696z" />
<glyph unicode="&#x101;" horiz-adv-x="1236" d="M86 498q0 228 136 376t337 148q219 0 338 -174v147h197v-995h-197v147q-119 -174 -338 -174q-201 0 -337 148.5t-136 376.5zM266 1251v156h656v-156h-656zM285 498q0 -155 86.5 -250.5t222.5 -95.5q138 0 224.5 95t86.5 251q0 155 -86.5 249.5t-224.5 94.5 q-136 0 -222.5 -94.5t-86.5 -249.5z" />
<glyph unicode="&#x102;" horiz-adv-x="1390" d="M49 0l561 1458h166l565 -1458h-213l-106 285h-657l-107 -285h-209zM350 1898h154q12 -76 61 -118.5t129 -42.5q79 0 128 42.5t61 118.5h153q-15 -143 -109.5 -226t-232.5 -83q-139 0 -234 82.5t-110 226.5zM430 461h524l-262 696z" />
<glyph unicode="&#x103;" horiz-adv-x="1236" d="M86 498q0 228 136 376t337 148q219 0 338 -174v147h197v-995h-197v147q-119 -174 -338 -174q-201 0 -337 148.5t-136 376.5zM250 1477h153q12 -76 61.5 -119t129.5 -43q78 0 127 43t61 119h154q-15 -144 -109.5 -227t-232.5 -83q-139 0 -234 83t-110 227zM285 498 q0 -155 86.5 -250.5t222.5 -95.5q138 0 224.5 95t86.5 251q0 155 -86.5 249.5t-224.5 94.5q-136 0 -222.5 -94.5t-86.5 -249.5z" />
<glyph unicode="&#x104;" horiz-adv-x="1390" d="M49 0l561 1458h166l565 -1458q-215 -114 -215 -229q0 -97 125 -97q42 0 82 7l8 -132q-52 -12 -108 -12q-114 0 -180 55.5t-66 149.5q0 79 50.5 146t133.5 112h-43l-106 285h-657l-107 -285h-209zM430 461h524l-262 696z" />
<glyph unicode="&#x105;" horiz-adv-x="1236" d="M86 498q0 228 136 376t337 148q219 0 338 -174v147h197v-995q-203 -114 -203 -229q0 -97 127 -97q40 0 80 7l8 -132q-53 -12 -111 -12q-112 0 -177.5 55.5t-65.5 149.5q0 79 51.5 147t134.5 111h-41v147q-119 -174 -338 -174q-201 0 -337 148.5t-136 376.5zM285 498 q0 -155 86.5 -250.5t222.5 -95.5q138 0 224.5 95t86.5 251q0 155 -86.5 249.5t-224.5 94.5q-136 0 -222.5 -94.5t-86.5 -249.5z" />
<glyph unicode="&#x106;" horiz-adv-x="1470" d="M98 729q0 170 53 312.5t146 239.5t221 150.5t277 53.5q193 0 350.5 -81t249.5 -228l-158 -107q-78 111 -192.5 168t-247.5 57q-215 0 -354.5 -151.5t-139.5 -413.5t139.5 -413.5t354.5 -151.5q133 0 247.5 57t192.5 168l156 -104q-94 -148 -251.5 -230t-346.5 -82 q-149 0 -277 53.5t-221 150.5t-146 239.5t-53 312.5zM561 1667l426 313l107 -147l-451 -285z" />
<glyph unicode="&#x107;" horiz-adv-x="1081" d="M82 498q0 145 61 263t181 189.5t278 71.5q135 0 247.5 -52.5t176.5 -142.5l-125 -122q-53 65 -130.5 99t-164.5 34q-145 0 -235 -93.5t-90 -246.5t88.5 -247.5t236.5 -94.5q88 0 164.5 35t130.5 100l123 -123q-62 -90 -173.5 -142.5t-246.5 -52.5q-235 0 -378.5 149 t-143.5 376zM367 1249l426 314l106 -148l-450 -287z" />
<glyph unicode="&#x108;" horiz-adv-x="1470" d="M98 729q0 170 53 312.5t146 239.5t221 150.5t277 53.5q193 0 350.5 -81t249.5 -228l-158 -107q-78 111 -192.5 168t-247.5 57q-215 0 -354.5 -151.5t-139.5 -413.5t139.5 -413.5t354.5 -151.5q133 0 247.5 57t192.5 168l156 -104q-94 -148 -251.5 -230t-346.5 -82 q-149 0 -277 53.5t-221 150.5t-146 239.5t-53 312.5zM414 1575l307 385h147l308 -385h-197l-184 240l-185 -240h-196z" />
<glyph unicode="&#x109;" horiz-adv-x="1081" d="M82 498q0 145 61 263t181 189.5t278 71.5q135 0 247.5 -52.5t176.5 -142.5l-125 -122q-53 65 -130.5 99t-164.5 34q-145 0 -235 -93.5t-90 -246.5t88.5 -247.5t236.5 -94.5q88 0 164.5 35t130.5 100l123 -123q-62 -90 -173.5 -142.5t-246.5 -52.5q-235 0 -378.5 149 t-143.5 376zM219 1145l307 385h148l307 -385h-197l-184 239l-184 -239h-197z" />
<glyph unicode="&#x10a;" horiz-adv-x="1470" d="M98 729q0 170 53 312.5t146 239.5t221 150.5t277 53.5q193 0 350.5 -81t249.5 -228l-158 -107q-78 111 -192.5 168t-247.5 57q-215 0 -354.5 -151.5t-139.5 -413.5t139.5 -413.5t354.5 -151.5q133 0 247.5 57t192.5 168l156 -104q-94 -148 -251.5 -230t-346.5 -82 q-149 0 -277 53.5t-221 150.5t-146 239.5t-53 312.5zM666 1743q0 53 37 90t90 37q54 0 91.5 -37t37.5 -90t-37.5 -90t-91.5 -37q-53 0 -90 37t-37 90z" />
<glyph unicode="&#x10b;" horiz-adv-x="1081" d="M82 498q0 145 61 263t181 189.5t278 71.5q135 0 247.5 -52.5t176.5 -142.5l-125 -122q-53 65 -130.5 99t-164.5 34q-145 0 -235 -93.5t-90 -246.5t88.5 -247.5t236.5 -94.5q88 0 164.5 35t130.5 100l123 -123q-62 -90 -173.5 -142.5t-246.5 -52.5q-235 0 -378.5 149 t-143.5 376zM471 1348q0 51 37.5 89t89.5 38q54 0 91.5 -37.5t37.5 -89.5q0 -53 -37.5 -90t-91.5 -37q-52 0 -89.5 37.5t-37.5 89.5z" />
<glyph unicode="&#x10c;" horiz-adv-x="1470" d="M98 729q0 170 53 312.5t146 239.5t221 150.5t277 53.5q193 0 350.5 -81t249.5 -228l-158 -107q-78 111 -192.5 168t-247.5 57q-215 0 -354.5 -151.5t-139.5 -413.5t139.5 -413.5t354.5 -151.5q133 0 247.5 57t192.5 168l156 -104q-94 -148 -251.5 -230t-346.5 -82 q-149 0 -277 53.5t-221 150.5t-146 239.5t-53 312.5zM414 1960h196l185 -240l184 240h197l-308 -385h-147z" />
<glyph unicode="&#x10d;" horiz-adv-x="1081" d="M82 498q0 145 61 263t181 189.5t278 71.5q135 0 247.5 -52.5t176.5 -142.5l-125 -122q-53 65 -130.5 99t-164.5 34q-145 0 -235 -93.5t-90 -246.5t88.5 -247.5t236.5 -94.5q88 0 164.5 35t130.5 100l123 -123q-62 -90 -173.5 -142.5t-246.5 -52.5q-235 0 -378.5 149 t-143.5 376zM219 1530h197l184 -240l184 240h197l-307 -385h-148z" />
<glyph unicode="&#x10e;" horiz-adv-x="1527" d="M184 0v1458h478q229 0 402 -86.5t269.5 -252.5t96.5 -390q0 -228 -96.5 -393.5t-269 -250.5t-402.5 -85h-478zM371 1960h196l185 -240l184 240h197l-308 -385h-147zM385 180h264q128 0 232 33.5t181 99.5t119 172t42 244q0 178 -74 303.5t-202 185.5t-298 60h-264v-1098z " />
<glyph unicode="&#x10f;" horiz-adv-x="1474" d="M86 498q0 228 136 376t337 148q219 0 338 -174v661h197v-1509h-197v147q-119 -174 -338 -174q-201 0 -337 148.5t-136 376.5zM285 498q0 -155 86.5 -250.5t222.5 -95.5q138 0 224.5 95t86.5 251q0 155 -86.5 249.5t-224.5 94.5q-136 0 -222.5 -94.5t-86.5 -249.5z M1241 1094l57 440l172 -16l-69 -441z" />
<glyph unicode="&#x110;" horiz-adv-x="1552" d="M23 643v172h186v643h477q229 0 402 -86.5t269.5 -252.5t96.5 -390q0 -228 -96.5 -393.5t-269 -250.5t-402.5 -85h-477v643h-186zM410 180h264q128 0 231.5 33.5t180.5 99.5t119 172t42 244q0 266 -156.5 407.5t-416.5 141.5h-264v-463h444v-172h-444v-463z" />
<glyph unicode="&#x111;" horiz-adv-x="1282" d="M86 498q0 228 136 376t337 148q219 0 338 -174v350h-399v133h399v178h197v-178h163v-133h-163v-1198h-197v147q-119 -174 -338 -174q-201 0 -337 148.5t-136 376.5zM285 498q0 -155 86.5 -250.5t222.5 -95.5q138 0 224.5 95t86.5 251q0 155 -86.5 249.5t-224.5 94.5 q-136 0 -222.5 -94.5t-86.5 -249.5z" />
<glyph unicode="&#x112;" horiz-adv-x="1222" d="M184 0v1458h908v-180h-707v-442h647v-179h-647v-477h727v-180h-928zM322 1661v156h655v-156h-655z" />
<glyph unicode="&#x113;" horiz-adv-x="1163" d="M82 496q0 232 143 379t359 147q210 0 351.5 -141t141.5 -349q0 -34 -8 -88h-786q15 -136 106.5 -216.5t233.5 -80.5q90 0 173.5 33t137.5 86l104 -129q-63 -72 -180.5 -118t-247.5 -46q-117 0 -216 40t-167 110t-106.5 166.5t-38.5 206.5zM254 1251v156h655v-156h-655z M285 584h596q-20 129 -100 199.5t-197 70.5q-119 0 -199 -70.5t-100 -199.5z" />
<glyph unicode="&#x114;" horiz-adv-x="1222" d="M184 0v1458h908v-180h-707v-442h647v-179h-647v-477h727v-180h-928zM307 1898h154q12 -76 61 -118.5t129 -42.5q79 0 128 42.5t61 118.5h153q-15 -143 -109.5 -226t-232.5 -83q-139 0 -234 82.5t-110 226.5z" />
<glyph unicode="&#x115;" horiz-adv-x="1163" d="M82 496q0 232 143 379t359 147q210 0 351.5 -141t141.5 -349q0 -34 -8 -88h-786q15 -136 106.5 -216.5t233.5 -80.5q90 0 173.5 33t137.5 86l104 -129q-63 -72 -180.5 -118t-247.5 -46q-117 0 -216 40t-167 110t-106.5 166.5t-38.5 206.5zM240 1477h153q12 -76 61.5 -119 t129.5 -43q78 0 127 43t61 119h154q-15 -144 -109.5 -227t-232.5 -83q-139 0 -234 83t-110 227zM285 584h596q-20 129 -100 199.5t-197 70.5q-119 0 -199 -70.5t-100 -199.5z" />
<glyph unicode="&#x116;" horiz-adv-x="1222" d="M184 0v1458h908v-180h-707v-442h647v-179h-647v-477h727v-180h-928zM522 1743q0 53 37 90t90 37q54 0 91.5 -37t37.5 -90t-37.5 -90t-91.5 -37q-53 0 -90 37t-37 90z" />
<glyph unicode="&#x117;" horiz-adv-x="1163" d="M82 496q0 232 143 379t359 147q210 0 351.5 -141t141.5 -349q0 -34 -8 -88h-786q15 -136 106.5 -216.5t233.5 -80.5q90 0 173.5 33t137.5 86l104 -129q-63 -72 -180.5 -118t-247.5 -46q-117 0 -216 40t-167 110t-106.5 166.5t-38.5 206.5zM285 584h596 q-20 129 -100 199.5t-197 70.5q-119 0 -199 -70.5t-100 -199.5zM455 1348q0 51 37.5 89t89.5 38q54 0 91.5 -37.5t37.5 -89.5q0 -53 -37.5 -90t-91.5 -37q-52 0 -89.5 37.5t-37.5 89.5z" />
<glyph unicode="&#x118;" horiz-adv-x="1222" d="M184 0v1458h908v-180h-707v-442h647v-179h-647v-477h727v-180q-215 -114 -215 -229q0 -97 125 -97q42 0 82 7l8 -132q-52 -12 -108 -12q-114 0 -180 55.5t-66 149.5q0 79 50.5 146t133.5 112h-758z" />
<glyph unicode="&#x119;" horiz-adv-x="1163" d="M82 496q0 232 143 379t359 147q210 0 351.5 -141t141.5 -349q0 -34 -8 -88h-786q15 -136 106.5 -216.5t233.5 -80.5q91 0 176 35.5t139 91.5l92 -141q-2 -2 -33.5 -30t-46.5 -40q-79 -66 -118 -124.5t-39 -120.5q0 -105 127 -105q35 0 81 8l9 -131q-52 -12 -111 -12 q-114 0 -179 55.5t-65 151.5q0 110 90 207q-68 -19 -135 -19q-117 0 -216 40t-167 110t-106.5 166.5t-38.5 206.5zM285 584h596q-20 129 -100 199.5t-197 70.5q-119 0 -199 -70.5t-100 -199.5z" />
<glyph unicode="&#x11a;" horiz-adv-x="1222" d="M184 0v1458h908v-180h-707v-442h647v-179h-647v-477h727v-180h-928zM268 1960h197l184 -240l185 240h196l-307 -385h-148z" />
<glyph unicode="&#x11b;" horiz-adv-x="1163" d="M82 496q0 232 143 379t359 147q210 0 351.5 -141t141.5 -349q0 -34 -8 -88h-786q15 -136 106.5 -216.5t233.5 -80.5q90 0 173.5 33t137.5 86l104 -129q-63 -72 -180.5 -118t-247.5 -46q-117 0 -216 40t-167 110t-106.5 166.5t-38.5 206.5zM203 1530h196l185 -240l184 240 h197l-308 -385h-147zM285 584h596q-20 129 -100 199.5t-197 70.5q-119 0 -199 -70.5t-100 -199.5z" />
<glyph unicode="&#x11c;" horiz-adv-x="1622" d="M98 723q0 221 92 394.5t258 270.5t377 97q189 0 353.5 -79t261.5 -222l-156 -113q-176 227 -446 227q-109 0 -205.5 -37t-170 -106.5t-116.5 -178t-43 -243.5q0 -260 147 -417.5t375 -157.5q142 0 263.5 63.5t173.5 165.5v223h-406v166h608v-776h-174l-10 174 q-81 -90 -206 -145.5t-275 -55.5q-145 0 -273.5 54t-223 150t-149.5 237.5t-55 308.5zM444 1575l308 385h147l307 -385h-196l-185 240l-184 -240h-197z" />
<glyph unicode="&#x11d;" horiz-adv-x="1193" d="M66 -307l118 123q72 -73 176.5 -117.5t212.5 -44.5q134 0 216.5 64.5t82.5 175.5q0 73 -39 133t-106 98q-85 -29 -172 -29q-204 0 -338.5 131t-134.5 332q0 200 134.5 331.5t338.5 131.5q129 0 236 -55q45 28 120 28h201v-164h-166q84 -120 84 -272q0 -103 -38 -191 t-107 -151q82 -56 132 -143t50 -195q0 -183 -135.5 -291t-358.5 -108q-164 0 -299.5 59.5t-207.5 153.5zM176 1145l307 385h148l307 -385h-197l-184 239l-184 -239h-197zM274 559q0 -129 80.5 -207t200.5 -78t201.5 78t81.5 207q0 127 -81.5 205t-201.5 78t-200.5 -77.5 t-80.5 -205.5z" />
<glyph unicode="&#x11e;" horiz-adv-x="1622" d="M98 723q0 221 92 394.5t258 270.5t377 97q189 0 353.5 -79t261.5 -222l-156 -113q-176 227 -446 227q-109 0 -205.5 -37t-170 -106.5t-116.5 -178t-43 -243.5q0 -260 147 -417.5t375 -157.5q142 0 263.5 63.5t173.5 165.5v223h-406v166h608v-776h-174l-10 174 q-81 -90 -206 -145.5t-275 -55.5q-145 0 -273.5 54t-223 150t-149.5 237.5t-55 308.5zM481 1898h154q12 -76 61 -118.5t129 -42.5q79 0 128 42.5t61 118.5h153q-15 -143 -109.5 -226t-232.5 -83q-139 0 -234 82.5t-110 226.5z" />
<glyph unicode="&#x11f;" horiz-adv-x="1193" d="M66 -307l118 123q72 -73 176.5 -117.5t212.5 -44.5q134 0 216.5 64.5t82.5 175.5q0 73 -39 133t-106 98q-85 -29 -172 -29q-204 0 -338.5 131t-134.5 332q0 200 134.5 331.5t338.5 131.5q129 0 236 -55q45 28 120 28h201v-164h-166q84 -120 84 -272q0 -103 -38 -191 t-107 -151q82 -56 132 -143t50 -195q0 -183 -135.5 -291t-358.5 -108q-164 0 -299.5 59.5t-207.5 153.5zM213 1477h154q12 -76 61 -119t129 -43q78 0 127 43t61 119h154q-15 -144 -109.5 -227t-232.5 -83q-139 0 -234 83t-110 227zM274 559q0 -129 80.5 -207t200.5 -78 t201.5 78t81.5 207q0 127 -81.5 205t-201.5 78t-200.5 -77.5t-80.5 -205.5z" />
<glyph unicode="&#x120;" horiz-adv-x="1622" d="M98 723q0 221 92 394.5t258 270.5t377 97q189 0 353.5 -79t261.5 -222l-156 -113q-176 227 -446 227q-109 0 -205.5 -37t-170 -106.5t-116.5 -178t-43 -243.5q0 -260 147 -417.5t375 -157.5q142 0 263.5 63.5t173.5 165.5v223h-406v166h608v-776h-174l-10 174 q-81 -90 -206 -145.5t-275 -55.5q-145 0 -273.5 54t-223 150t-149.5 237.5t-55 308.5zM696 1743q0 53 37 90t90 37q54 0 91.5 -37t37.5 -90t-37.5 -90t-91.5 -37q-53 0 -90 37t-37 90z" />
<glyph unicode="&#x121;" horiz-adv-x="1193" d="M66 -307l118 123q72 -73 176.5 -117.5t212.5 -44.5q134 0 216.5 64.5t82.5 175.5q0 73 -39 133t-106 98q-85 -29 -172 -29q-204 0 -338.5 131t-134.5 332q0 200 134.5 331.5t338.5 131.5q129 0 236 -55q45 28 120 28h201v-164h-166q84 -120 84 -272q0 -103 -38 -191 t-107 -151q82 -56 132 -143t50 -195q0 -183 -135.5 -291t-358.5 -108q-164 0 -299.5 59.5t-207.5 153.5zM274 559q0 -129 80.5 -207t200.5 -78t201.5 78t81.5 207q0 127 -81.5 205t-201.5 78t-200.5 -77.5t-80.5 -205.5zM428 1348q0 51 37.5 89t89.5 38q53 0 91 -37.5 t38 -89.5q0 -53 -37.5 -90t-91.5 -37q-53 0 -90 37.5t-37 89.5z" />
<glyph unicode="&#x122;" horiz-adv-x="1622" d="M98 723q0 221 92 394.5t258 270.5t377 97q189 0 353.5 -79t261.5 -222l-156 -113q-176 227 -446 227q-109 0 -205.5 -37t-170 -106.5t-116.5 -178t-43 -243.5q0 -260 147 -417.5t375 -157.5q142 0 263.5 63.5t173.5 165.5v223h-406v166h608v-776h-174l-10 174 q-81 -90 -206 -145.5t-275 -55.5q-145 0 -273.5 54t-223 150t-149.5 237.5t-55 308.5zM684 -246q0 46 32 78.5t79 32.5q53 0 91 -41t38 -115q0 -68 -40.5 -155.5t-99.5 -157.5l-88 51q72 113 84 199q-40 8 -68 37.5t-28 70.5z" />
<glyph unicode="&#x123;" horiz-adv-x="1193" d="M66 -307l118 123q72 -73 176.5 -117.5t212.5 -44.5q134 0 216.5 64.5t82.5 175.5q0 73 -39 133t-106 98q-85 -29 -172 -29q-204 0 -338.5 131t-134.5 332q0 200 134.5 331.5t338.5 131.5q129 0 236 -55q45 28 120 28h201v-164h-166q84 -120 84 -272q0 -103 -38 -191 t-107 -151q82 -56 132 -143t50 -195q0 -183 -135.5 -291t-358.5 -108q-164 0 -299.5 59.5t-207.5 153.5zM274 559q0 -129 80.5 -207t200.5 -78t201.5 78t81.5 207q0 127 -81.5 205t-201.5 78t-200.5 -77.5t-80.5 -205.5zM434 1286q0 68 40 155.5t99 157.5l89 -51 q-73 -113 -84 -198q39 -8 67.5 -38t28.5 -71q0 -46 -33 -78.5t-80 -32.5q-53 0 -90 41t-37 115z" />
<glyph unicode="&#x124;" horiz-adv-x="1525" d="M184 0v1458h201v-612h756v612h200v-1458h-200v659h-756v-659h-201zM383 1575l307 385h148l307 -385h-197l-184 240l-184 -240h-197z" />
<glyph unicode="&#x125;" horiz-adv-x="1165" d="M-139 1626l307 385h147l308 -385h-197l-184 240l-185 -240h-196zM143 0v1509h195v-628q54 65 134 103t179 38q167 0 274 -103t107 -288v-631h-196v596q0 113 -64.5 176.5t-171.5 63.5q-77 0 -146.5 -35t-113.5 -103v-698h-197z" />
<glyph unicode="&#x126;" horiz-adv-x="1583" d="M41 1104v149h172v205h201v-205h755v205h201v-205h172v-149h-172v-1104h-201v659h-755v-659h-201v1104h-172zM414 846h755v258h-755v-258z" />
<glyph unicode="&#x127;" horiz-adv-x="1210" d="M23 1198v133h165v178h195v-178h399v-133h-399v-317q54 65 134 103t179 38q167 0 274 -103t107 -288v-631h-196v596q0 113 -64.5 176.5t-171.5 63.5q-77 0 -146.5 -35t-113.5 -103v-698h-197v1198h-165z" />
<glyph unicode="&#x128;" horiz-adv-x="585" d="M-80 1634q3 120 51 197.5t135 77.5q55 0 121 -30.5t125 -60.5t97 -30q43 0 61 30.5t25 84.5h131q-3 -119 -51.5 -196t-135.5 -77q-55 0 -120.5 30t-124 59.5t-95.5 29.5q-43 0 -61 -30t-25 -85h-133zM193 0v1458h200v-1458h-200z" />
<glyph unicode="&#x129;" horiz-adv-x="489" d="M-76 1235q2 114 46 186t120 72q45 0 99 -29.5t100.5 -58.5t72.5 -29q57 0 68 103h131q-2 -113 -46 -184.5t-120 -71.5q-45 0 -98.5 28.5t-100 57t-73.5 28.5q-55 0 -66 -102h-133zM147 0v995h197v-995h-197z" />
<glyph unicode="&#x12a;" horiz-adv-x="585" d="M-35 1661v156h656v-156h-656zM193 0v1458h200v-1458h-200z" />
<glyph unicode="&#x12b;" horiz-adv-x="489" d="M-31 1251v156h549v-156h-549zM147 0v995h197v-995h-197z" />
<glyph unicode="&#x12c;" horiz-adv-x="585" d="M-49 1898h153q12 -76 61 -118.5t130 -42.5q79 0 127.5 42.5t60.5 118.5h154q-15 -143 -109.5 -226t-232.5 -83q-139 0 -234 82.5t-110 226.5zM193 0v1458h200v-1458h-200z" />
<glyph unicode="&#x12d;" horiz-adv-x="489" d="M-59 1460h153q5 -66 41.5 -106.5t108.5 -40.5t108 40.5t41 106.5h156q-8 -132 -90.5 -213.5t-214.5 -81.5t-213.5 81.5t-89.5 213.5zM147 0v995h197v-995h-197z" />
<glyph unicode="&#x12e;" horiz-adv-x="585" d="M98 -254q0 72 40.5 139t103.5 115h-49v1458h200v-1458q-155 -120 -155 -231q0 -95 108 -95q34 0 74 7l8 -132q-52 -12 -102 -12q-105 0 -166.5 56.5t-61.5 152.5z" />
<glyph unicode="&#x12f;" horiz-adv-x="489" d="M49 -254q0 72 40.5 139t103.5 115h-46v995h197v-995q-156 -121 -156 -231q0 -95 109 -95q34 0 74 7l8 -132q-53 -12 -103 -12q-105 0 -166 56.5t-61 152.5zM117 1348q0 51 37.5 89t89.5 38q54 0 91.5 -37.5t37.5 -89.5q0 -53 -37.5 -90t-91.5 -37q-52 0 -89.5 37.5 t-37.5 89.5z" />
<glyph unicode="&#x130;" horiz-adv-x="585" d="M166 1743q0 53 37 90t90 37q54 0 91.5 -37t37.5 -90t-37.5 -90t-91.5 -37q-53 0 -90 37t-37 90zM193 0v1458h200v-1458h-200z" />
<glyph unicode="&#x131;" horiz-adv-x="489" d="M147 0v995h197v-995h-197z" />
<glyph unicode="&#x132;" horiz-adv-x="1646" d="M193 0v1458h200v-1458h-200zM641 63l64 170q152 -73 299 -73q268 0 268 299v999h201v-1012q0 -225 -113.5 -348t-333.5 -123q-100 0 -206 24.5t-179 63.5z" />
<glyph unicode="&#x133;" horiz-adv-x="978" d="M117 1348q0 51 37.5 89t89.5 38q54 0 91.5 -37.5t37.5 -89.5q0 -53 -37.5 -90t-91.5 -37q-52 0 -89.5 37.5t-37.5 89.5zM147 0v995h197v-995h-197zM303 -487l37 170q73 -25 141 -25q79 0 117.5 39.5t38.5 130.5v1167h197v-1188q0 -167 -83.5 -247t-236.5 -80 q-126 0 -211 33zM606 1348q0 52 38 89.5t91 37.5q52 0 89.5 -38t37.5 -89q0 -52 -37 -89.5t-90 -37.5q-54 0 -91.5 37t-37.5 90z" />
<glyph unicode="&#x134;" horiz-adv-x="1060" d="M55 63l64 170q152 -73 299 -73q268 0 268 299v999h201v-1012q0 -225 -113.5 -348t-333.5 -123q-100 0 -206 24.5t-179 63.5zM408 1575l307 385h147l307 -385h-196l-185 240l-184 -240h-196z" />
<glyph unicode="&#x135;" horiz-adv-x="489" d="M-186 -487l36 170q73 -25 142 -25q79 0 117 39.5t38 130.5v1167h197v-1188q0 -167 -83 -247t-236 -80q-126 0 -211 33zM-63 1157l239 373h139l240 -373h-170l-139 236l-140 -236h-169z" />
<glyph unicode="&#x136;" horiz-adv-x="1370" d="M184 0v1458h201v-612h193q31 0 45 7.5t28 29.5l402 575h225l-481 -704l516 -754h-232l-434 625q-14 22 -29 29.5t-49 7.5h-184v-662h-201zM604 -246q0 46 32 78.5t79 32.5q53 0 91 -41t38 -115q0 -68 -40 -155.5t-99 -157.5l-89 51q72 113 84 199q-40 8 -68 37.5 t-28 70.5z" />
<glyph unicode="&#x137;" horiz-adv-x="1103" d="M143 0v1509h197v-905h166q23 0 34.5 7.5t22.5 27.5l268 356h222l-351 -469l357 -526h-230l-264 395q-15 22 -27.5 29.5t-41.5 7.5h-156v-432h-197zM467 -246q0 46 32 78.5t79 32.5q53 0 91 -41t38 -115q0 -68 -40.5 -155.5t-99.5 -157.5l-88 51q72 113 84 199 q-40 8 -68 37.5t-28 70.5z" />
<glyph unicode="&#x138;" horiz-adv-x="1103" d="M143 0v995h197v-391h166q23 0 34.5 7.5t22.5 27.5l268 356h222l-351 -469l357 -526h-230l-264 395q-15 22 -27.5 29.5t-41.5 7.5h-156v-432h-197z" />
<glyph unicode="&#x139;" horiz-adv-x="1138" d="M51 1667l426 313l107 -147l-451 -285zM184 0v1458h201v-1278h678v-180h-879z" />
<glyph unicode="&#x13a;" horiz-adv-x="493" d="M14 1763l426 314l107 -148l-451 -287zM150 0v1509h196v-1509h-196z" />
<glyph unicode="&#x13b;" horiz-adv-x="1138" d="M184 0v1458h201v-1278h678v-180h-879zM504 -246q0 46 31.5 78.5t78.5 32.5q53 0 91 -41t38 -115q0 -68 -40 -155.5t-99 -157.5l-88 51q72 113 84 199q-40 8 -68 37.5t-28 70.5z" />
<glyph unicode="&#x13c;" horiz-adv-x="493" d="M127 -246q0 46 32 78.5t79 32.5q53 0 91 -41t38 -115q0 -68 -40.5 -155.5t-99.5 -157.5l-88 51q72 113 84 199q-40 8 -68 37.5t-28 70.5zM150 0v1509h196v-1509h-196z" />
<glyph unicode="&#x13d;" horiz-adv-x="1138" d="M184 0v1458h201v-1278h678v-180h-879zM600 1040l57 441l172 -17l-69 -440z" />
<glyph unicode="&#x13e;" horiz-adv-x="724" d="M150 0v1509h196v-1509h-196zM492 1094l57 440l172 -16l-70 -441z" />
<glyph unicode="&#x13f;" horiz-adv-x="1138" d="M184 0v1458h201v-1278h678v-180h-879zM721 805q0 55 39.5 95t95.5 40q55 0 94 -40t39 -95t-38.5 -94t-94.5 -39q-57 0 -96 38.5t-39 94.5z" />
<glyph unicode="&#x140;" horiz-adv-x="796" d="M150 0v1509h196v-1509h-196zM512 776q0 55 39.5 95t95.5 40q55 0 94 -40t39 -95q0 -56 -39 -94.5t-94 -38.5q-57 0 -96 38.5t-39 94.5z" />
<glyph unicode="&#x141;" horiz-adv-x="1163" d="M31 426v176l178 105v751h201v-645l407 236v-177l-407 -237v-455h677v-180h-878v530z" />
<glyph unicode="&#x142;" horiz-adv-x="675" d="M57 442v179l187 106v782h196v-684l185 105v-176l-185 -105v-649h-196v549z" />
<glyph unicode="&#x143;" horiz-adv-x="1599" d="M184 0v1458h189l850 -1136v1136h192v-1458h-188l-850 1137v-1137h-193zM567 1667l426 313l107 -147l-451 -285z" />
<glyph unicode="&#x144;" horiz-adv-x="1165" d="M143 0v995h185l2 -125q54 68 137 110t184 42q167 0 274 -103.5t107 -287.5v-631h-196v596q0 113 -64.5 176.5t-171.5 63.5q-77 0 -146.5 -35t-113.5 -103v-698h-197zM356 1249l426 314l107 -148l-451 -287z" />
<glyph unicode="&#x145;" horiz-adv-x="1599" d="M184 0v1458h189l850 -1136v1136h192v-1458h-188l-850 1137v-1137h-193zM682 -246q0 46 32 78.5t79 32.5q53 0 91 -41t38 -115q0 -68 -40.5 -155.5t-99.5 -157.5l-88 51q72 113 84 199q-40 8 -68 37.5t-28 70.5z" />
<glyph unicode="&#x146;" horiz-adv-x="1165" d="M143 0v995h185l2 -125q54 68 137 110t184 42q167 0 274 -103.5t107 -287.5v-631h-196v596q0 113 -64.5 176.5t-171.5 63.5q-77 0 -146.5 -35t-113.5 -103v-698h-197zM465 -246q0 46 31.5 78.5t78.5 32.5q53 0 91.5 -41t38.5 -115q0 -68 -40.5 -155.5t-99.5 -157.5l-88 51 q72 113 84 199q-40 8 -68 37.5t-28 70.5z" />
<glyph unicode="&#x147;" horiz-adv-x="1599" d="M184 0v1458h189l850 -1136v1136h192v-1458h-188l-850 1137v-1137h-193zM420 1960h196l185 -240l184 240h197l-308 -385h-147z" />
<glyph unicode="&#x148;" horiz-adv-x="1165" d="M143 0v995h185l2 -125q54 68 137 110t184 42q167 0 274 -103.5t107 -287.5v-631h-196v596q0 113 -64.5 176.5t-171.5 63.5q-77 0 -146.5 -35t-113.5 -103v-698h-197zM211 1530h197l184 -240l184 240h197l-307 -385h-148z" />
<glyph unicode="&#x149;" horiz-adv-x="1421" d="M45 942q155 151 174 289q-53 8 -88 41t-35 86q0 54 36 90.5t93 36.5q62 0 105 -46.5t43 -140.5q0 -116 -71 -232.5t-193 -203.5zM399 0v995h185l2 -123q54 68 137 109t184 41q167 0 274 -103.5t107 -287.5v-631h-196v596q0 113 -64.5 176.5t-171.5 63.5q-77 0 -146.5 -35 t-113.5 -103v-698h-197z" />
<glyph unicode="&#x14a;" horiz-adv-x="1599" d="M184 0v1458h189l850 -1136v1136h192v-1601q0 -177 -85 -277t-265 -100q-105 0 -188 24l34 179q78 -19 129 -19q101 0 142 53.5t41 157.5v131l-846 1131v-1137h-193z" />
<glyph unicode="&#x14b;" horiz-adv-x="1165" d="M143 0v995h185l2 -125q54 68 137 110t184 42q167 0 274 -103.5t107 -287.5v-750q0 -159 -78 -250.5t-243 -91.5q-81 0 -162 23l37 172q60 -17 108 -17q82 0 112 43.5t30 133.5v702q0 113 -64.5 176.5t-171.5 63.5q-77 0 -146.5 -35t-113.5 -103v-698h-197z" />
<glyph unicode="&#x14c;" horiz-adv-x="1687" d="M98 729q0 217 98.5 390.5t269 269.5t378.5 96t378 -96t268.5 -269.5t98.5 -390.5t-98.5 -390.5t-268.5 -269.5t-378 -96t-378.5 96t-269 269.5t-98.5 390.5zM303 729q0 -251 153.5 -408t387.5 -157t387 157t153 408t-153 408t-387 157t-387.5 -157t-153.5 -408zM516 1661 v156h655v-156h-655z" />
<glyph unicode="&#x14d;" horiz-adv-x="1200" d="M82 496q0 227 146.5 376.5t371.5 149.5q149 0 268 -69t184.5 -189t65.5 -268q0 -224 -146 -372.5t-372 -148.5q-148 0 -267 68t-185 187t-66 266zM272 1251v156h656v-156h-656zM281 496q0 -151 91 -244.5t228 -93.5q139 0 229.5 93t90.5 245q0 153 -91.5 247.5 t-228.5 94.5t-228 -94.5t-91 -247.5z" />
<glyph unicode="&#x14e;" horiz-adv-x="1687" d="M98 729q0 217 98.5 390.5t269 269.5t378.5 96t378 -96t268.5 -269.5t98.5 -390.5t-98.5 -390.5t-268.5 -269.5t-378 -96t-378.5 96t-269 269.5t-98.5 390.5zM303 729q0 -251 153.5 -408t387.5 -157t387 157t153 408t-153 408t-387 157t-387.5 -157t-153.5 -408zM500 1898 h153q12 -76 61 -118.5t130 -42.5q79 0 127.5 42.5t60.5 118.5h154q-15 -143 -109.5 -226t-232.5 -83q-139 0 -234 82.5t-110 226.5z" />
<glyph unicode="&#x14f;" horiz-adv-x="1200" d="M82 496q0 227 146.5 376.5t371.5 149.5q149 0 268 -69t184.5 -189t65.5 -268q0 -224 -146 -372.5t-372 -148.5q-148 0 -267 68t-185 187t-66 266zM258 1477h154q12 -76 61 -119t129 -43q79 0 128 43t61 119h153q-15 -144 -109.5 -227t-232.5 -83q-139 0 -234 83t-110 227 zM281 496q0 -151 91 -244.5t228 -93.5q139 0 229.5 93t90.5 245q0 153 -91.5 247.5t-228.5 94.5t-228 -94.5t-91 -247.5z" />
<glyph unicode="&#x150;" horiz-adv-x="1687" d="M98 729q0 217 98.5 390.5t269 269.5t378.5 96t378 -96t268.5 -269.5t98.5 -390.5t-98.5 -390.5t-268.5 -269.5t-378 -96t-378.5 96t-269 269.5t-98.5 390.5zM303 729q0 -251 153.5 -408t387.5 -157t387 157t153 408t-153 408t-387 157t-387.5 -157t-153.5 -408zM526 1663 l271 360l143 -108l-301 -340zM909 1663l273 360l143 -108l-301 -340z" />
<glyph unicode="&#x151;" horiz-adv-x="1200" d="M82 496q0 227 146.5 376.5t371.5 149.5q149 0 268 -69t184.5 -189t65.5 -268q0 -224 -146 -372.5t-372 -148.5q-148 0 -267 68t-185 187t-66 266zM254 1221l270 360l144 -108l-301 -340zM281 496q0 -151 91 -244.5t228 -93.5q139 0 229.5 93t90.5 245q0 153 -91.5 247.5 t-228.5 94.5t-228 -94.5t-91 -247.5zM637 1221l272 360l144 -108l-301 -340z" />
<glyph unicode="&#x152;" horiz-adv-x="2412" d="M98 729q0 215 95 388t262 270.5t372 97.5q174 0 317 -75t234 -212v260h903v-180h-704v-442h645v-179h-645v-477h725v-180h-924v260q-91 -137 -234 -212t-317 -75q-205 0 -371.5 97.5t-262 270.5t-95.5 388zM303 729q0 -252 151 -408.5t390 -156.5t389.5 156.5 t150.5 408.5t-151 408.5t-389 156.5t-389.5 -156.5t-151.5 -408.5z" />
<glyph unicode="&#x153;" horiz-adv-x="1998" d="M82 496q0 227 146.5 376.5t371.5 149.5q133 0 242 -55.5t178 -153.5q68 93 172 145t227 52q210 0 352 -141.5t142 -348.5q0 -48 -6 -88h-789q15 -136 106.5 -216.5t233.5 -80.5q90 0 174 33t137 86l105 -129q-61 -72 -179 -118t-249 -46q-140 0 -251.5 56t-180.5 155 q-70 -93 -177 -145t-237 -52q-148 0 -267 68t-185 187t-66 266zM281 496q0 -151 91 -244.5t228 -93.5q139 0 229.5 93t90.5 245q0 153 -91.5 247.5t-228.5 94.5t-228 -94.5t-91 -247.5zM1120 571h596q-20 129 -99.5 200t-197.5 71q-119 0 -199 -71t-100 -200z" />
<glyph unicode="&#x154;" horiz-adv-x="1345" d="M184 0v1458h529q225 0 355 -106t130 -308q0 -162 -86 -263t-240 -134l388 -647h-226l-370 633h-279v-633h-201zM385 805h332q133 0 205.5 62t72.5 177t-73 178.5t-205 63.5h-332v-481zM453 1667l426 313l106 -147l-450 -285z" />
<glyph unicode="&#x155;" horiz-adv-x="763" d="M143 0v995h191v-141q57 78 147.5 123t190.5 45h37v-186h-19q-225 0 -350 -131v-705h-197zM207 1249l426 314l106 -148l-450 -287z" />
<glyph unicode="&#x156;" horiz-adv-x="1345" d="M184 0v1458h529q225 0 355 -106t130 -308q0 -162 -86 -263t-240 -134l388 -647h-226l-370 633h-279v-633h-201zM385 805h332q133 0 205.5 62t72.5 177t-73 178.5t-205 63.5h-332v-481zM610 -246q0 46 32 78.5t79 32.5q53 0 91 -41t38 -115q0 -68 -40 -155.5t-99 -157.5 l-88 51q72 113 84 199q-40 8 -68.5 37.5t-28.5 70.5z" />
<glyph unicode="&#x157;" horiz-adv-x="763" d="M121 -246q0 46 31.5 78.5t78.5 32.5q53 0 91 -41t38 -115q0 -68 -40 -155.5t-99 -157.5l-88 51q72 113 84 199q-40 8 -68 37.5t-28 70.5zM143 0v995h191v-141q57 78 147.5 123t190.5 45h37v-186h-19q-225 0 -350 -131v-705h-197z" />
<glyph unicode="&#x158;" horiz-adv-x="1345" d="M184 0v1458h529q225 0 355 -106t130 -308q0 -162 -86 -263t-240 -134l388 -647h-226l-370 633h-279v-633h-201zM305 1960h197l184 -240l184 240h197l-307 -385h-148zM385 805h332q133 0 205.5 62t72.5 177t-73 178.5t-205 63.5h-332v-481z" />
<glyph unicode="&#x159;" horiz-adv-x="763" d="M100 1530h197l143 -227l144 227h196l-266 -373h-147zM143 0v995h191v-141q57 78 147.5 123t190.5 45h37v-186h-19q-225 0 -350 -131v-705h-197z" />
<glyph unicode="&#x15a;" horiz-adv-x="1212" d="M72 168l104 145q74 -71 185 -114t235 -43q141 0 230 63.5t89 179.5q0 54 -22.5 97t-61.5 71t-91 53t-110.5 42t-120 38t-120 42t-110.5 53.5t-91 72t-61.5 98.5t-22.5 132q0 186 138 286.5t366 100.5q144 0 274 -42.5t218 -129.5l-99 -144q-155 136 -389 136 q-141 0 -224 -52.5t-83 -150.5q0 -52 27.5 -92t74.5 -66.5t108 -48t128 -42.5t134.5 -44.5t128.5 -58.5t108 -80t74.5 -114.5t27.5 -156.5q0 -203 -141 -313.5t-377 -110.5q-159 0 -300 51t-226 142zM379 1667l426 313l106 -147l-450 -285z" />
<glyph unicode="&#x15b;" horiz-adv-x="954" d="M68 106l86 144q66 -49 152.5 -77t174.5 -28t144.5 35.5t56.5 98.5q0 43 -32.5 73t-84.5 48t-115 33.5t-126 36.5t-115 50.5t-84.5 82.5t-32.5 126q0 137 105.5 215t285.5 78q108 0 210 -29t165 -84l-80 -139q-119 86 -291 86q-92 0 -146 -30.5t-54 -92.5 q0 -35 25.5 -60.5t67 -40t94.5 -30t108 -28.5t108 -37t94.5 -54.5t67 -82t25.5 -117.5q0 -142 -103 -222.5t-282 -80.5q-125 0 -237 34t-187 92zM256 1249l426 314l106 -148l-450 -287z" />
<glyph unicode="&#x15c;" horiz-adv-x="1212" d="M72 168l104 145q74 -71 185 -114t235 -43q141 0 230 63.5t89 179.5q0 54 -22.5 97t-61.5 71t-91 53t-110.5 42t-120 38t-120 42t-110.5 53.5t-91 72t-61.5 98.5t-22.5 132q0 186 138 286.5t366 100.5q144 0 274 -42.5t218 -129.5l-99 -144q-155 136 -389 136 q-141 0 -224 -52.5t-83 -150.5q0 -52 27.5 -92t74.5 -66.5t108 -48t128 -42.5t134.5 -44.5t128.5 -58.5t108 -80t74.5 -114.5t27.5 -156.5q0 -203 -141 -313.5t-377 -110.5q-159 0 -300 51t-226 142zM231 1575l308 385h147l307 -385h-196l-185 240l-184 -240h-197z" />
<glyph unicode="&#x15d;" horiz-adv-x="954" d="M68 106l86 144q66 -49 152.5 -77t174.5 -28t144.5 35.5t56.5 98.5q0 43 -32.5 73t-84.5 48t-115 33.5t-126 36.5t-115 50.5t-84.5 82.5t-32.5 126q0 137 105.5 215t285.5 78q108 0 210 -29t165 -84l-80 -139q-119 86 -291 86q-92 0 -146 -30.5t-54 -92.5 q0 -35 25.5 -60.5t67 -40t94.5 -30t108 -28.5t108 -37t94.5 -54.5t67 -82t25.5 -117.5q0 -142 -103 -222.5t-282 -80.5q-125 0 -237 34t-187 92zM111 1145l307 385h147l307 -385h-196l-184 239l-185 -239h-196z" />
<glyph unicode="&#x15e;" horiz-adv-x="1212" d="M72 168l104 145q74 -71 185 -114t235 -43q141 0 230 63.5t89 179.5q0 54 -22.5 97t-61.5 71t-91 53t-110.5 42t-120 38t-120 42t-110.5 53.5t-91 72t-61.5 98.5t-22.5 132q0 186 138 286.5t366 100.5q144 0 274 -42.5t218 -129.5l-99 -144q-155 136 -389 136 q-141 0 -224 -52.5t-83 -150.5q0 -52 27.5 -92t74.5 -66.5t108 -48t128 -42.5t134.5 -44.5t128.5 -58.5t108 -80t74.5 -114.5t27.5 -156.5q0 -186 -119.5 -295t-324.5 -127l-13 -79q222 -21 222 -174q0 -85 -66.5 -134t-181.5 -49q-109 0 -176 21l16 119q78 -19 150 -19 q116 0 116 66q0 41 -52 57t-177 18l25 174q-141 9 -264.5 59t-198.5 132z" />
<glyph unicode="&#x15f;" horiz-adv-x="954" d="M68 106l86 144q66 -49 152.5 -77t174.5 -28t144.5 35.5t56.5 98.5q0 43 -32.5 73t-84.5 48t-115 33.5t-126 36.5t-115 50.5t-84.5 82.5t-32.5 126q0 137 105.5 215t285.5 78q108 0 210 -29t165 -84l-80 -139q-119 86 -291 86q-92 0 -146 -30.5t-54 -92.5 q0 -35 25.5 -60.5t67 -40t94.5 -30t108 -28.5t108 -37t94.5 -54.5t67 -82t25.5 -117.5q0 -131 -89.5 -210.5t-246.5 -90.5l-13 -84q222 -21 222 -174q0 -85 -66.5 -134t-181.5 -49q-108 0 -176 21l16 119q78 -19 150 -19q116 0 116 66q0 41 -52 57t-177 18l27 181 q-207 21 -338 122z" />
<glyph unicode="&#x160;" horiz-adv-x="1212" d="M72 168l104 145q74 -71 185 -114t235 -43q141 0 230 63.5t89 179.5q0 54 -22.5 97t-61.5 71t-91 53t-110.5 42t-120 38t-120 42t-110.5 53.5t-91 72t-61.5 98.5t-22.5 132q0 186 138 286.5t366 100.5q144 0 274 -42.5t218 -129.5l-99 -144q-155 136 -389 136 q-141 0 -224 -52.5t-83 -150.5q0 -52 27.5 -92t74.5 -66.5t108 -48t128 -42.5t134.5 -44.5t128.5 -58.5t108 -80t74.5 -114.5t27.5 -156.5q0 -203 -141 -313.5t-377 -110.5q-159 0 -300 51t-226 142zM231 1960h197l184 -240l185 240h196l-307 -385h-147z" />
<glyph unicode="&#x161;" horiz-adv-x="954" d="M68 106l86 144q66 -49 152.5 -77t174.5 -28t144.5 35.5t56.5 98.5q0 43 -32.5 73t-84.5 48t-115 33.5t-126 36.5t-115 50.5t-84.5 82.5t-32.5 126q0 137 105.5 215t285.5 78q108 0 210 -29t165 -84l-80 -139q-119 86 -291 86q-92 0 -146 -30.5t-54 -92.5 q0 -35 25.5 -60.5t67 -40t94.5 -30t108 -28.5t108 -37t94.5 -54.5t67 -82t25.5 -117.5q0 -142 -103 -222.5t-282 -80.5q-125 0 -237 34t-187 92zM111 1530h196l185 -240l184 240h196l-307 -385h-147z" />
<glyph unicode="&#x162;" horiz-adv-x="1255" d="M70 1278v180h1118v-180h-459v-1278h-29l-16 -102q221 -21 221 -174q0 -85 -66.5 -134t-181.5 -49q-109 0 -176 21l17 119q78 -19 149 -19q117 0 117 66q0 41 -52 57t-177 18l28 197h-37v1278h-456z" />
<glyph unicode="&#x163;" horiz-adv-x="993" d="M16 827v144l95 10q83 10 112 47t29 117v192h197v-342h419v-168h-419v-465q0 -208 194 -208q125 0 217 102l96 -133q-111 -130 -294 -148l-13 -77q221 -21 221 -174q0 -85 -66 -134t-181 -49q-109 0 -177 21l17 119q78 -19 149 -19q117 0 117 66q0 41 -52 57t-177 18 l26 179q-128 24 -201 117t-73 239v489h-236z" />
<glyph unicode="&#x164;" horiz-adv-x="1255" d="M70 1278v180h1118v-180h-459v-1278h-203v1278h-456zM248 1960h196l185 -240l184 240h197l-308 -385h-147z" />
<glyph unicode="&#x165;" horiz-adv-x="993" d="M16 827v144l95 10q83 10 112 47t29 117v192h197v-342h419v-168h-419v-465q0 -208 194 -208q125 0 217 102l96 -133q-62 -71 -151 -110.5t-197 -39.5q-162 0 -259 98t-97 267v489h-236zM602 1176l57 440l172 -17l-69 -440z" />
<glyph unicode="&#x166;" horiz-adv-x="1255" d="M70 1278v180h1118v-180h-459v-485h315v-172h-315v-621h-203v621h-313v172h313v485h-456z" />
<glyph unicode="&#x167;" horiz-adv-x="1028" d="M49 471v133h238v223h-236v144l94 10q83 10 112.5 47t29.5 117v192h196v-342h420v-168h-420v-223h369v-133h-369v-109q0 -100 48.5 -154t146.5 -54q126 0 217 102l96 -133q-62 -71 -151 -110.5t-197 -39.5q-162 0 -259 98t-97 267v133h-238z" />
<glyph unicode="&#x168;" horiz-adv-x="1497" d="M172 516v942h203v-913q0 -174 102 -278.5t273 -104.5q177 0 275.5 103.5t98.5 279.5v913h199v-942q0 -249 -156 -396t-417 -147q-169 0 -299.5 65.5t-204.5 189.5t-74 288zM375 1634q3 120 51 197.5t135 77.5q55 0 120.5 -30.5t124.5 -60.5t97 -30q43 0 61 30.5t25 84.5 h131q-3 -119 -51 -196t-135 -77q-55 0 -120.5 30t-124 59.5t-95.5 29.5q-43 0 -61 -30t-25 -85h-133z" />
<glyph unicode="&#x169;" horiz-adv-x="1146" d="M133 385v610h197v-583q0 -122 66 -188t177 -66t177.5 66t66.5 188v583h197v-610q0 -194 -123.5 -303t-317.5 -109t-317 109t-123 303zM199 1223q3 120 51 196t135 76q55 0 120.5 -30t124.5 -59.5t97 -29.5q43 0 61 30t25 85h131q-3 -120 -51 -196t-135 -76 q-55 0 -120.5 29.5t-124 59t-95.5 29.5q-43 0 -61 -29.5t-25 -84.5h-133z" />
<glyph unicode="&#x16a;" horiz-adv-x="1497" d="M172 516v942h203v-913q0 -174 102 -278.5t273 -104.5q177 0 275.5 103.5t98.5 279.5v913h199v-942q0 -249 -156 -396t-417 -147q-169 0 -299.5 65.5t-204.5 189.5t-74 288zM420 1661v156h655v-156h-655z" />
<glyph unicode="&#x16b;" horiz-adv-x="1146" d="M133 385v610h197v-583q0 -122 66 -188t177 -66t177.5 66t66.5 188v583h197v-610q0 -194 -123.5 -303t-317.5 -109t-317 109t-123 303zM246 1251v156h655v-156h-655z" />
<glyph unicode="&#x16c;" horiz-adv-x="1497" d="M172 516v942h203v-913q0 -174 102 -278.5t273 -104.5q177 0 275.5 103.5t98.5 279.5v913h199v-942q0 -249 -156 -396t-417 -147q-169 0 -299.5 65.5t-204.5 189.5t-74 288zM406 1898h153q12 -76 61 -118.5t130 -42.5q79 0 127.5 42.5t60.5 118.5h154 q-15 -143 -109.5 -226t-232.5 -83q-139 0 -234 82.5t-110 226.5z" />
<glyph unicode="&#x16d;" horiz-adv-x="1146" d="M133 385v610h197v-583q0 -122 66 -188t177 -66t177.5 66t66.5 188v583h197v-610q0 -194 -123.5 -303t-317.5 -109t-317 109t-123 303zM229 1477h154q12 -76 61 -119t129 -43q79 0 128 43t61 119h153q-15 -144 -109.5 -227t-232.5 -83q-139 0 -234 83t-110 227z" />
<glyph unicode="&#x16e;" horiz-adv-x="1497" d="M172 516v942h203v-913q0 -174 102 -278.5t273 -104.5q177 0 275.5 103.5t98.5 279.5v913h199v-942q0 -249 -156 -396t-417 -147q-169 0 -299.5 65.5t-204.5 189.5t-74 288zM483 1815q0 109 78.5 183.5t188.5 74.5t188 -74.5t78 -183.5q0 -111 -78 -185t-188 -74 t-188.5 74t-78.5 185zM625 1815q0 -56 36 -91.5t89 -35.5t88.5 35.5t35.5 91.5t-35.5 91.5t-88.5 35.5t-89 -35.5t-36 -91.5z" />
<glyph unicode="&#x16f;" horiz-adv-x="1146" d="M133 385v610h197v-583q0 -122 66 -188t177 -66t177.5 66t66.5 188v583h197v-610q0 -194 -123.5 -303t-317.5 -109t-317 109t-123 303zM307 1393q0 109 78 183.5t188 74.5t188.5 -74.5t78.5 -183.5t-78.5 -183.5t-188.5 -74.5t-188 74.5t-78 183.5zM449 1393 q0 -56 35.5 -91.5t88.5 -35.5t89 35.5t36 91.5t-36 91.5t-89 35.5t-88.5 -35.5t-35.5 -91.5z" />
<glyph unicode="&#x170;" horiz-adv-x="1497" d="M172 516v942h203v-913q0 -174 102 -278.5t273 -104.5q177 0 275.5 103.5t98.5 279.5v913h199v-942q0 -249 -156 -396t-417 -147q-169 0 -299.5 65.5t-204.5 189.5t-74 288zM430 1663l270 360l144 -108l-301 -340zM813 1663l272 360l144 -108l-301 -340z" />
<glyph unicode="&#x171;" horiz-adv-x="1146" d="M133 385v610h197v-583q0 -122 66 -188t177 -66t177.5 66t66.5 188v583h197v-610q0 -194 -123.5 -303t-317.5 -109t-317 109t-123 303zM227 1221l271 360l143 -108l-301 -340zM610 1221l273 360l143 -108l-301 -340z" />
<glyph unicode="&#x172;" horiz-adv-x="1497" d="M172 516v942h203v-913q0 -174 102 -278.5t273 -104.5q177 0 275.5 103.5t98.5 279.5v913h199v-942q0 -140 -46.5 -242.5t-146.5 -187.5q-83 -69 -118 -130.5t-35 -125.5q0 -117 133 -117q34 0 80 8l8 -131q-52 -12 -108 -12q-118 0 -185 57.5t-67 159.5q0 111 69 195 q-83 -17 -157 -17q-169 0 -299.5 65.5t-204.5 189.5t-74 288z" />
<glyph unicode="&#x173;" horiz-adv-x="1146" d="M133 385v610h197v-583q0 -122 66 -188t177 -66t177.5 66t66.5 188v583h197v-610q0 -193 -135 -313q-75 -65 -110.5 -124t-35.5 -126q0 -109 127 -109q34 0 80 8l8 -131q-52 -12 -108 -12q-114 0 -180 56t-66 151q0 105 76 197q-46 -9 -97 -9q-194 0 -317 109t-123 303z " />
<glyph unicode="&#x174;" horiz-adv-x="2160" d="M49 1458h213l361 -1126l372 1126h174l361 -1126l371 1126h210l-493 -1458h-174l-367 1120l-372 -1120h-175zM702 1575l308 385h147l307 -385h-196l-185 240l-184 -240h-197z" />
<glyph unicode="&#x175;" horiz-adv-x="1642" d="M18 995h205l260 -745l258 745h162l258 -745l260 745h201l-358 -995h-181l-260 715l-262 -715h-184zM442 1145l308 385h147l307 -385h-196l-185 239l-184 -239h-197z" />
<glyph unicode="&#x176;" horiz-adv-x="1292" d="M23 1458h221l405 -762l402 762h219l-522 -962v-496h-201v496zM266 1575l307 385h148l307 -385h-197l-184 240l-184 -240h-197z" />
<glyph unicode="&#x177;" horiz-adv-x="1161" d="M133 365v630h197v-598q0 -112 63.5 -175.5t169.5 -63.5q76 0 145 36t113 105v696h197v-1069q0 -204 -123.5 -325t-355.5 -121q-231 0 -394 112l64 158q69 -46 156 -72t170 -26q140 0 214 74.5t74 207.5v183q-53 -65 -132.5 -104.5t-178.5 -39.5q-167 0 -273 103.5 t-106 288.5zM201 1145l307 385h147l308 -385h-197l-184 239l-185 -239h-196z" />
<glyph unicode="&#x178;" horiz-adv-x="1292" d="M23 1458h221l405 -762l402 762h219l-522 -962v-496h-201v496zM283 1761q0 51 37.5 89t89.5 38t88.5 -37.5t36.5 -89.5q0 -53 -36.5 -90t-88.5 -37t-89.5 37t-37.5 90zM758 1761q0 52 37 89.5t90 37.5q52 0 88.5 -37.5t36.5 -89.5q0 -53 -36.5 -90t-88.5 -37 q-54 0 -90.5 37t-36.5 90z" />
<glyph unicode="&#x179;" horiz-adv-x="1175" d="M78 0v147l762 1131h-758v180h1010v-145l-764 -1133h774v-180h-1024zM362 1667l426 313l107 -147l-451 -285z" />
<glyph unicode="&#x17a;" horiz-adv-x="1003" d="M96 827v168h801v-147l-545 -680h566v-168h-820v147l545 680h-547zM264 1249l426 314l107 -148l-451 -287z" />
<glyph unicode="&#x17b;" horiz-adv-x="1175" d="M78 0v147l762 1131h-758v180h1010v-145l-764 -1133h774v-180h-1024zM467 1743q0 53 37.5 90t89.5 37q54 0 91.5 -37t37.5 -90t-37.5 -90t-91.5 -37q-52 0 -89.5 37t-37.5 90z" />
<glyph unicode="&#x17c;" horiz-adv-x="1003" d="M96 827v168h801v-147l-545 -680h566v-168h-820v147l545 680h-547zM371 1348q0 51 37.5 89t89.5 38q54 0 91.5 -37.5t37.5 -89.5q0 -53 -37.5 -90t-91.5 -37q-52 0 -89.5 37.5t-37.5 89.5z" />
<glyph unicode="&#x17d;" horiz-adv-x="1175" d="M78 0v147l762 1131h-758v180h1010v-145l-764 -1133h774v-180h-1024zM215 1960h197l184 -240l184 240h197l-307 -385h-148z" />
<glyph unicode="&#x17e;" horiz-adv-x="1003" d="M96 827v168h801v-147l-545 -680h566v-168h-820v147l545 680h-547zM117 1530h196l185 -240l184 240h197l-308 -385h-147z" />
<glyph unicode="&#x18f;" horiz-adv-x="1589" d="M98 711v98h1182q-21 227 -158 356t-338 129q-134 0 -251.5 -55.5t-200.5 -165.5l-154 107q97 146 259 225.5t349 79.5q150 0 280 -53.5t224 -150.5t147.5 -239.5t53.5 -312.5q0 -218 -91 -391t-251 -269t-358 -96q-196 0 -353 89.5t-248.5 258.5t-91.5 390zM303 643 q12 -221 146 -350t337 -129q201 0 335 130.5t159 348.5h-977z" />
<glyph unicode="&#x192;" d="M96 -324h111q123 0 180 49.5t70 172.5l73 667h-272v146l291 14l45 403q22 196 128.5 288.5t311.5 92.5h125v-172h-119q-121 0 -181 -47.5t-73 -173.5l-43 -389h344v-162h-364l-72 -678q-22 -201 -127.5 -292t-314.5 -91h-113v172z" />
<glyph unicode="&#x1f4;" horiz-adv-x="1622" d="M98 723q0 221 92 394.5t258 270.5t377 97q189 0 353.5 -79t261.5 -222l-156 -113q-176 227 -446 227q-109 0 -205.5 -37t-170 -106.5t-116.5 -178t-43 -243.5q0 -260 147 -417.5t375 -157.5q142 0 263.5 63.5t173.5 165.5v223h-406v166h608v-776h-174l-10 174 q-81 -90 -206 -145.5t-275 -55.5q-145 0 -273.5 54t-223 150t-149.5 237.5t-55 308.5zM592 1667l426 313l106 -147l-450 -285z" />
<glyph unicode="&#x1f5;" horiz-adv-x="1193" d="M66 -307l118 123q72 -73 176.5 -117.5t212.5 -44.5q134 0 216.5 64.5t82.5 175.5q0 73 -39 133t-106 98q-85 -29 -172 -29q-204 0 -338.5 131t-134.5 332q0 200 134.5 331.5t338.5 131.5q129 0 236 -55q45 28 120 28h201v-164h-166q84 -120 84 -272q0 -103 -38 -191 t-107 -151q82 -56 132 -143t50 -195q0 -183 -135.5 -291t-358.5 -108q-164 0 -299.5 59.5t-207.5 153.5zM274 559q0 -129 80.5 -207t200.5 -78t201.5 78t81.5 207q0 127 -81.5 205t-201.5 78t-200.5 -77.5t-80.5 -205.5zM324 1249l426 314l106 -148l-450 -287z" />
<glyph unicode="&#x1fa;" horiz-adv-x="1390" d="M49 0l561 1458h166l565 -1458h-213l-106 285h-657l-107 -285h-209zM430 461h524l-262 696zM430 1815q0 133 129 225l373 276l92 -118l-231 -152q75 -24 122.5 -86.5t47.5 -144.5q0 -111 -78.5 -185t-188.5 -74t-188 74t-78 185zM569 1815q0 -56 36.5 -91.5t90.5 -35.5 q53 0 89 35.5t36 91.5t-36 91.5t-89 35.5q-54 0 -90.5 -35.5t-36.5 -91.5z" />
<glyph unicode="&#x1fb;" horiz-adv-x="1236" d="M86 498q0 228 136 376t337 148q219 0 338 -174v147h197v-995h-197v147q-119 -174 -338 -174q-201 0 -337 148.5t-136 376.5zM285 498q0 -155 86.5 -250.5t222.5 -95.5q138 0 224.5 95t86.5 251q0 155 -86.5 249.5t-224.5 94.5q-136 0 -222.5 -94.5t-86.5 -249.5z M328 1362q0 128 129 225l374 277l93 -119l-234 -152q75 -24 122.5 -86.5t47.5 -144.5q0 -111 -78 -184.5t-188 -73.5t-188 73.5t-78 184.5zM469 1362q0 -56 36 -91.5t89 -35.5t89 35.5t36 91.5q0 55 -36 90t-89 35t-89 -35t-36 -90z" />
<glyph unicode="&#x1fc;" horiz-adv-x="2078" d="M12 0l922 1458h1014v-180h-707v-442h647v-179h-647v-477h727v-180h-928v328h-594l-204 -328h-230zM557 504h483v772zM1155 1667l426 313l107 -147l-451 -285z" />
<glyph unicode="&#x1fd;" horiz-adv-x="1857" d="M82 303q0 153 116 234t300 81q144 0 278 -40v38q0 107 -72 173.5t-188 66.5q-180 0 -317 -117l-95 131q169 152 412 152q127 0 224.5 -46t156.5 -128q68 84 166.5 129t214.5 45q210 0 350.5 -141t140.5 -349q0 -48 -6 -88h-786q15 -136 106.5 -216.5t233.5 -80.5 q89 0 173 33.5t136 85.5l107 -129q-63 -72 -181 -118t-249 -46q-125 0 -228 45.5t-172 126.5q-79 -79 -192 -125.5t-236 -46.5q-178 0 -285.5 91t-107.5 239zM279 309q0 -83 64.5 -131.5t166.5 -48.5q92 0 178 39t137 100q-34 75 -43 166q-120 47 -252 47 q-116 0 -183.5 -43.5t-67.5 -128.5zM709 1249l426 314l106 -148l-450 -287zM979 584h594q-20 129 -99 199.5t-198 70.5t-199 -70.5t-98 -199.5z" />
<glyph unicode="&#x1fe;" horiz-adv-x="1687" d="M96 729q0 217 98.5 390.5t269 269.5t378.5 96q199 0 366 -90l109 153l137 -92l-111 -156q116 -103 180 -250t64 -321q0 -217 -98.5 -390.5t-268.5 -269.5t-378 -96q-197 0 -369 93l-108 -156l-134 92l109 156q-115 104 -179.5 250t-64.5 321zM301 729q0 -250 154 -410 l643 916q-115 59 -256 59q-234 0 -387.5 -157t-153.5 -408zM586 223q115 -59 256 -59q234 0 387 157t153 408q0 252 -153 408zM610 1667l426 313l107 -147l-451 -285z" />
<glyph unicode="&#x1ff;" horiz-adv-x="1200" d="M82 496q0 227 146.5 376.5t371.5 149.5q141 0 250 -59l74 102l106 -72l-74 -106q77 -71 119.5 -172.5t42.5 -218.5q0 -224 -146 -372.5t-372 -148.5q-133 0 -246 58l-71 -103l-107 72l74 102q-79 72 -123.5 173t-44.5 219zM268 496q0 -149 86 -248l400 567 q-67 37 -154 37q-143 0 -237.5 -98.5t-94.5 -257.5zM369 1249l426 314l106 -148l-450 -287zM451 176q74 -33 149 -33q143 0 237.5 98t94.5 255q0 148 -84 245z" />
<glyph unicode="&#x218;" horiz-adv-x="1212" d="M72 168l104 145q74 -71 185 -114t235 -43q141 0 230 63.5t89 179.5q0 54 -22.5 97t-61.5 71t-91 53t-110.5 42t-120 38t-120 42t-110.5 53.5t-91 72t-61.5 98.5t-22.5 132q0 186 138 286.5t366 100.5q144 0 274 -42.5t218 -129.5l-99 -144q-155 136 -389 136 q-141 0 -224 -52.5t-83 -150.5q0 -52 27.5 -92t74.5 -66.5t108 -48t128 -42.5t134.5 -44.5t128.5 -58.5t108 -80t74.5 -114.5t27.5 -156.5q0 -203 -141 -313.5t-377 -110.5q-159 0 -300 51t-226 142zM485 -246q0 46 32 78.5t79 32.5q53 0 91 -41t38 -115q0 -68 -40 -155.5 t-99 -157.5l-88 51q72 113 84 199q-40 8 -68.5 37.5t-28.5 70.5z" />
<glyph unicode="&#x219;" horiz-adv-x="954" d="M68 106l86 144q66 -49 152.5 -77t174.5 -28t144.5 35.5t56.5 98.5q0 43 -32.5 73t-84.5 48t-115 33.5t-126 36.5t-115 50.5t-84.5 82.5t-32.5 126q0 137 105.5 215t285.5 78q108 0 210 -29t165 -84l-80 -139q-119 86 -291 86q-92 0 -146 -30.5t-54 -92.5 q0 -35 25.5 -60.5t67 -40t94.5 -30t108 -28.5t108 -37t94.5 -54.5t67 -82t25.5 -117.5q0 -142 -103 -222.5t-282 -80.5q-125 0 -237 34t-187 92zM354 -246q0 46 32 78.5t79 32.5q53 0 91 -41t38 -115q0 -68 -40 -155.5t-99 -157.5l-88 51q72 113 84 199q-40 8 -68.5 37.5 t-28.5 70.5z" />
<glyph unicode="&#x21a;" horiz-adv-x="1255" d="M70 1278v180h1118v-180h-459v-1278h-203v1278h-456zM510 -246q0 46 32 78.5t79 32.5q53 0 91 -41t38 -115q0 -68 -40.5 -155.5t-99.5 -157.5l-88 51q72 113 84 199q-40 8 -68 37.5t-28 70.5z" />
<glyph unicode="&#x21b;" horiz-adv-x="993" d="M16 827v144l95 10q83 10 112 47t29 117v192h197v-342h419v-168h-419v-465q0 -208 194 -208q125 0 217 102l96 -133q-62 -71 -151 -110.5t-197 -39.5q-162 0 -259 98t-97 267v489h-236zM475 -246q0 46 32 78.5t79 32.5q53 0 91 -41t38 -115q0 -68 -40.5 -155.5 t-99.5 -157.5l-88 51q72 113 84 199q-40 8 -68 37.5t-28 70.5z" />
<glyph unicode="&#x237;" horiz-adv-x="489" d="M-186 -487l36 170q73 -25 142 -25q79 0 117 39.5t38 130.5v1167h197v-1188q0 -167 -83 -247t-236 -80q-126 0 -211 33z" />
<glyph unicode="&#x2c6;" horiz-adv-x="966" d="M102 1145l308 385h147l307 -385h-196l-185 239l-184 -239h-197z" />
<glyph unicode="&#x2da;" horiz-adv-x="737" d="M102 1393q0 109 78.5 183.5t188.5 74.5t188 -74.5t78 -183.5t-78 -183.5t-188 -74.5t-188.5 74.5t-78.5 183.5zM244 1393q0 -56 36 -91.5t89 -35.5t89 35.5t36 91.5t-36 91.5t-89 35.5t-89 -35.5t-36 -91.5z" />
<glyph unicode="&#x2dc;" horiz-adv-x="950" d="M102 1223q3 120 51.5 196t135.5 76q55 0 120.5 -30t124.5 -59.5t97 -29.5q43 0 61 30t25 85h131q-3 -120 -51 -196t-135 -76q-55 0 -120.5 29.5t-124 59t-95.5 29.5q-43 0 -61 -29.5t-25 -84.5h-134z" />
<glyph unicode="&#x1e80;" horiz-adv-x="2160" d="M49 1458h213l361 -1126l372 1126h174l361 -1126l371 1126h210l-493 -1458h-174l-367 1120l-372 -1120h-175zM786 1833l107 147l426 -313l-82 -119z" />
<glyph unicode="&#x1e81;" horiz-adv-x="1642" d="M18 995h205l260 -745l258 745h162l258 -745l260 745h201l-358 -995h-181l-260 715l-262 -715h-184zM524 1415l107 148l426 -314l-82 -121z" />
<glyph unicode="&#x1e82;" horiz-adv-x="2160" d="M49 1458h213l361 -1126l372 1126h174l361 -1126l371 1126h210l-493 -1458h-174l-367 1120l-372 -1120h-175zM850 1667l426 313l106 -147l-450 -285z" />
<glyph unicode="&#x1e83;" horiz-adv-x="1642" d="M18 995h205l260 -745l258 745h162l258 -745l260 745h201l-358 -995h-181l-260 715l-262 -715h-184zM590 1249l426 314l106 -148l-450 -287z" />
<glyph unicode="&#x1e84;" horiz-adv-x="2160" d="M49 1458h213l361 -1126l372 1126h174l361 -1126l371 1126h210l-493 -1458h-174l-367 1120l-372 -1120h-175zM721 1761q0 51 37.5 89t89.5 38t88.5 -37.5t36.5 -89.5q0 -53 -36.5 -90t-88.5 -37t-89.5 37t-37.5 90zM1196 1761q0 52 37 89.5t90 37.5q52 0 88.5 -37.5 t36.5 -89.5q0 -53 -36.5 -90t-88.5 -37q-54 0 -90.5 37t-36.5 90z" />
<glyph unicode="&#x1e85;" horiz-adv-x="1642" d="M18 995h205l260 -745l258 745h162l258 -745l260 745h201l-358 -995h-181l-260 715l-262 -715h-184zM459 1311q0 51 37.5 89t89.5 38t88.5 -37.5t36.5 -89.5q0 -53 -36.5 -90t-88.5 -37t-89.5 37t-37.5 90zM934 1311q0 52 37 89.5t90 37.5q52 0 88.5 -37.5t36.5 -89.5 q0 -53 -36.5 -90t-88.5 -37q-54 0 -90.5 37t-36.5 90z" />
<glyph unicode="&#x1e9e;" horiz-adv-x="1566" d="M172 0v1008q0 210 119.5 330t349.5 120h690v-155l-344 -482h10q225 0 351.5 -105t126.5 -300q0 -202 -134.5 -322.5t-367.5 -120.5q-103 0 -203.5 24t-171.5 64l66 166q153 -75 311 -75q134 0 213.5 69.5t79.5 194.5q0 117 -73.5 180t-221.5 63h-238v136l344 483h-395 q-309 0 -309 -283v-995h-203z" />
<glyph unicode="&#x1ef2;" horiz-adv-x="1292" d="M23 1458h221l405 -762l402 762h219l-522 -962v-496h-201v496zM348 1833l107 147l426 -313l-82 -119z" />
<glyph unicode="&#x1ef3;" horiz-adv-x="1161" d="M133 365v630h197v-598q0 -112 63.5 -175.5t169.5 -63.5q76 0 145 36t113 105v696h197v-1069q0 -204 -123.5 -325t-355.5 -121q-231 0 -394 112l64 158q69 -46 156 -72t170 -26q140 0 214 74.5t74 207.5v183q-53 -65 -132.5 -104.5t-178.5 -39.5q-167 0 -273 103.5 t-106 288.5zM283 1415l106 148l426 -314l-82 -121z" />
<glyph unicode="&#x2000;" horiz-adv-x="1158" />
<glyph unicode="&#x2001;" horiz-adv-x="2316" />
<glyph unicode="&#x2002;" horiz-adv-x="1024" />
<glyph unicode="&#x2003;" horiz-adv-x="2048" />
<glyph unicode="&#x2004;" horiz-adv-x="772" />
<glyph unicode="&#x2005;" horiz-adv-x="579" />
<glyph unicode="&#x2006;" horiz-adv-x="386" />
<glyph unicode="&#x2007;" horiz-adv-x="386" />
<glyph unicode="&#x2008;" horiz-adv-x="289" />
<glyph unicode="&#x2009;" horiz-adv-x="278" />
<glyph unicode="&#x200a;" horiz-adv-x="139" />
<glyph unicode="&#x2010;" horiz-adv-x="786" d="M57 473v170h672v-170h-672z" />
<glyph unicode="&#x2011;" horiz-adv-x="786" d="M57 473v170h672v-170h-672z" />
<glyph unicode="&#x2012;" horiz-adv-x="786" d="M57 473v170h672v-170h-672z" />
<glyph unicode="&#x2013;" horiz-adv-x="1024" d="M0 473v170h1024v-170h-1024z" />
<glyph unicode="&#x2014;" horiz-adv-x="2048" d="M0 473v170h2048v-170h-2048z" />
<glyph unicode="&#x2018;" horiz-adv-x="446" d="M74 1047q0 118 71 234.5t193 203.5l63 -80q-156 -152 -172 -289q53 -10 87 -43t34 -86t-36.5 -89t-92.5 -36q-62 0 -104.5 46t-42.5 139z" />
<glyph unicode="&#x2019;" horiz-adv-x="446" d="M45 942q155 151 174 289q-53 8 -88 41t-35 86q0 54 36 90.5t93 36.5q62 0 105 -46.5t43 -140.5q0 -116 -71 -232.5t-193 -203.5z" />
<glyph unicode="&#x201a;" horiz-adv-x="464" d="M45 -299q157 150 174 289q-53 8 -88 41t-35 86q0 55 36 91t93 36q62 0 105 -46.5t43 -140.5q0 -118 -71 -234.5t-193 -201.5z" />
<glyph unicode="&#x201c;" horiz-adv-x="833" d="M74 1047q0 118 71 234.5t193 203.5l63 -80q-156 -152 -172 -289q53 -10 87 -43t34 -86t-36.5 -89t-92.5 -36q-62 0 -104.5 46t-42.5 139zM463 1047q0 118 70 234.5t192 203.5l63 -80q-153 -153 -172 -289q51 -8 86 -42t35 -87t-35.5 -89t-93.5 -36q-61 0 -103 46t-42 139 z" />
<glyph unicode="&#x201d;" horiz-adv-x="833" d="M45 942q155 151 174 289q-53 8 -88 41t-35 86q0 54 36 90.5t93 36.5q62 0 105 -46.5t43 -140.5q0 -116 -71 -232.5t-193 -203.5zM432 942q155 151 174 289q-53 8 -88 41t-35 86q0 54 36.5 90.5t92.5 36.5q62 0 105 -46.5t43 -140.5q0 -116 -70.5 -232.5t-191.5 -203.5z " />
<glyph unicode="&#x201e;" horiz-adv-x="854" d="M45 -299q157 150 174 289q-53 8 -88 41t-35 86q0 55 36 91t93 36q62 0 105 -46.5t43 -140.5q0 -118 -71 -234.5t-193 -201.5zM432 -299q157 150 174 289q-53 8 -88 41t-35 86q0 55 36.5 91t92.5 36q62 0 105 -46.5t43 -140.5q0 -118 -70.5 -234.5t-191.5 -201.5z" />
<glyph unicode="&#x2020;" horiz-adv-x="1134" d="M78 809v176h395v473h184v-473h400v-176h-400v-1305h-184v1305h-395z" />
<glyph unicode="&#x2021;" horiz-adv-x="1206" d="M115 -23v179h395v653h-395v176h395v473h182v-473h400v-176h-400v-653h400v-179h-400v-473h-182v473h-395z" />
<glyph unicode="&#x2022;" horiz-adv-x="837" d="M109 506q0 128 91 218.5t220 90.5q128 0 218.5 -90.5t90.5 -218.5q0 -129 -90.5 -219t-218.5 -90q-129 0 -220 90t-91 219z" />
<glyph unicode="&#x2026;" horiz-adv-x="1363" d="M94 109q0 54 39 93.5t94 39.5t95 -39.5t40 -93.5q0 -57 -39.5 -96.5t-95.5 -39.5t-94.5 39.5t-38.5 96.5zM549 109q0 54 39 93.5t94 39.5t95 -39.5t40 -93.5q0 -57 -39.5 -96.5t-95.5 -39.5t-94.5 39.5t-38.5 96.5zM1004 109q0 54 39 93.5t94 39.5t95 -39.5t40 -93.5 q0 -57 -39.5 -96.5t-95.5 -39.5t-94.5 39.5t-38.5 96.5z" />
<glyph unicode="&#x202f;" horiz-adv-x="463" />
<glyph unicode="&#x2030;" horiz-adv-x="2787" d="M102 1100q0 164 108 274.5t275 110.5t275 -110.5t108 -274.5t-108 -274.5t-275 -110.5t-275 110.5t-108 274.5zM266 1100q0 -111 64 -173.5t155 -62.5q92 0 156 62.5t64 173.5t-64 172t-156 61q-91 0 -155 -61t-64 -172zM510 0l768 1458h186l-768 -1458h-186zM1104 358 q0 164 109 274.5t276 110.5q166 0 274.5 -110.5t108.5 -274.5q0 -163 -108.5 -274t-274.5 -111q-167 0 -276 111t-109 274zM1268 358q0 -111 64.5 -172t156.5 -61q91 0 155 61t64 172t-64 173.5t-155 62.5q-92 0 -156.5 -62.5t-64.5 -173.5zM1970 358q0 164 108 274.5 t275 110.5t275 -110.5t108 -274.5q0 -163 -108 -274t-275 -111t-275 111t-108 274zM2134 358q0 -111 63.5 -172t155.5 -61q91 0 155 61t64 172t-64 173.5t-155 62.5q-92 0 -155.5 -62t-63.5 -174z" />
<glyph unicode="&#x2039;" horiz-adv-x="737" d="M76 481v117l450 403l117 -118l-387 -342l387 -344l-117 -117z" />
<glyph unicode="&#x203a;" horiz-adv-x="737" d="M94 197l387 344l-387 342l117 118l448 -403v-117l-450 -401z" />
<glyph unicode="&#x2044;" horiz-adv-x="487" d="M-233 0l768 1458h186l-768 -1458h-186z" />
<glyph unicode="&#x205f;" horiz-adv-x="579" />
<glyph unicode="&#x2070;" horiz-adv-x="860" d="M94 1257q0 131 36.5 231.5t113.5 161t186 60.5q162 0 248 -126t86 -327q0 -203 -86 -328.5t-248 -125.5q-163 0 -249.5 125.5t-86.5 328.5zM246 1257q0 -154 47.5 -234.5t136.5 -80.5q88 0 136 80.5t48 234.5q0 153 -48 233.5t-136 80.5q-89 0 -136.5 -80.5t-47.5 -233.5 z" />
<glyph unicode="&#x2074;" horiz-adv-x="819" d="M59 987v109l408 598h184v-582h109v-125h-109v-168h-147v168h-445zM225 1112h279v410z" />
<glyph unicode="&#x2075;" horiz-adv-x="759" d="M66 918l77 104q101 -84 222 -84q78 0 124 39t46 108t-48.5 107.5t-138.5 38.5h-227v463h514v-131h-377v-209h88q165 0 251.5 -69t86.5 -198q0 -130 -84.5 -207t-224.5 -77q-88 0 -173 32t-136 83z" />
<glyph unicode="&#x2076;" horiz-adv-x="790" d="M78 1104q0 120 90 256l213 334h166l-195 -295q27 6 62 6q128 0 216.5 -82.5t88.5 -210.5q0 -130 -92.5 -218.5t-229.5 -88.5t-228 85t-91 214zM225 1112q0 -75 48.5 -124.5t123.5 -49.5t124.5 49t49.5 125t-49.5 125t-124.5 49t-123.5 -49t-48.5 -125z" />
<glyph unicode="&#x2077;" horiz-adv-x="696" d="M45 1563v131h604v-107l-332 -768h-155l327 744h-444z" />
<glyph unicode="&#x2078;" horiz-adv-x="802" d="M80 1059q0 79 40.5 135t106.5 82q-58 28 -91.5 80t-33.5 117q0 107 86 172t213 65q126 0 211.5 -65t85.5 -172q0 -65 -34 -117t-93 -80q66 -27 109 -83t43 -134q0 -116 -92 -186t-230 -70q-139 0 -230 69.5t-91 186.5zM233 1073q0 -67 50.5 -102t117.5 -35t117.5 35 t50.5 102t-51 102t-117 35q-67 0 -117.5 -35t-50.5 -102zM248 1458q0 -58 42.5 -91.5t110.5 -33.5q67 0 110.5 34t43.5 91t-43.5 89t-110.5 32q-68 0 -110.5 -32t-42.5 -89z" />
<glyph unicode="&#x2079;" horiz-adv-x="790" d="M72 1401q0 132 92 219.5t229 87.5t228.5 -85t91.5 -214q0 -117 -90 -256l-213 -334h-166l194 295q-27 -6 -61 -6q-128 0 -216.5 83t-88.5 210zM219 1401q0 -76 49.5 -125t124.5 -49t123.5 49t48.5 125q0 75 -48.5 124.5t-123.5 49.5t-124.5 -49t-49.5 -125z" />
<glyph unicode="&#x207f;" horiz-adv-x="704" d="M80 819v602h139l2 -67q70 84 182 84q99 0 163.5 -63t64.5 -173v-383h-150v357q0 57 -32.5 89.5t-86.5 32.5q-83 0 -133 -67v-412h-149z" />
<glyph unicode="&#x2080;" horiz-adv-x="860" d="M94 211q0 131 36.5 231.5t113.5 161t186 60.5q162 0 248 -126t86 -327q0 -132 -36.5 -233.5t-113 -161.5t-184.5 -60q-163 0 -249.5 126t-86.5 329zM246 211q0 -154 47.5 -234.5t136.5 -80.5q88 0 136 80.5t48 234.5q0 153 -48 233t-136 80q-90 0 -137 -80t-47 -233z" />
<glyph unicode="&#x2081;" horiz-adv-x="563" d="M49 391v139l262 117h119v-874h-147v727z" />
<glyph unicode="&#x2082;" horiz-adv-x="694" d="M49 594q118 70 264 70q133 0 216 -65.5t83 -188.5q0 -93 -47.5 -172.5t-148.5 -184.5l-144 -149h351v-131h-545v112l211 228q95 101 134.5 160.5t39.5 117.5q0 63 -42.5 100t-117.5 37q-99 0 -201 -55z" />
<glyph unicode="&#x2083;" horiz-adv-x="761" d="M57 -131l78 108q105 -88 234 -88q77 0 121.5 37t44.5 103q0 60 -39.5 92.5t-104.5 32.5h-121v122h88q72 0 112 34t40 93q0 60 -41 92.5t-113 32.5q-108 0 -213 -75l-67 110q57 47 133.5 74t155.5 27q132 0 212 -64.5t80 -175.5q0 -138 -102 -201q129 -66 129 -211 q0 -119 -85.5 -187.5t-223.5 -68.5q-90 0 -176.5 30.5t-141.5 82.5z" />
<glyph unicode="&#x2084;" horiz-adv-x="819" d="M59 49l408 598h184v-581h109v-125h-109v-168h-147v168h-445v108zM225 66h279v409z" />
<glyph unicode="&#x2085;" horiz-adv-x="759" d="M66 -129l77 104q103 -86 222 -86q77 0 123.5 40t46.5 110q0 69 -48.5 107t-138.5 38h-227v463h514v-131h-377v-209h88q165 0 251.5 -68.5t86.5 -197.5q0 -130 -84.5 -207.5t-224.5 -77.5q-88 0 -173 32t-136 83z" />
<glyph unicode="&#x2086;" horiz-adv-x="790" d="M78 57q0 120 90 256l213 334h166l-195 -295q27 6 62 6q128 0 216.5 -82t88.5 -210q0 -132 -92.5 -220t-229.5 -88t-228 85t-91 214zM225 66q0 -75 48.5 -125t123.5 -50t124.5 49.5t49.5 125.5t-49.5 125t-124.5 49t-123.5 -49t-48.5 -125z" />
<glyph unicode="&#x2087;" horiz-adv-x="696" d="M45 516v131h604v-106l-332 -768h-155l327 743h-444z" />
<glyph unicode="&#x2088;" horiz-adv-x="802" d="M80 12q0 79 40.5 135t106.5 82q-58 28 -91.5 80t-33.5 117q0 107 86 172.5t213 65.5q125 0 211 -65.5t86 -172.5q0 -65 -34 -117t-93 -80q66 -27 109 -83t43 -134q0 -116 -92 -186t-230 -70q-139 0 -230 69.5t-91 186.5zM233 27q0 -67 50.5 -103.5t117.5 -36.5 t117.5 36.5t50.5 103.5t-51 102t-117 35q-67 0 -117.5 -35t-50.5 -102zM248 412q0 -58 42.5 -91.5t110.5 -33.5q67 0 110.5 34t43.5 91t-43.5 88.5t-110.5 31.5q-68 0 -110.5 -31.5t-42.5 -88.5z" />
<glyph unicode="&#x2089;" horiz-adv-x="790" d="M72 356q0 131 92.5 219.5t228.5 88.5q137 0 229.5 -86t92.5 -213q0 -113 -90 -256l-215 -336h-164l192 295q-32 -7 -61 -7q-127 0 -216 83.5t-89 211.5zM219 356q0 -76 49.5 -125t124.5 -49t124.5 49t49.5 125q0 75 -49 123.5t-125 48.5q-75 0 -124.5 -48.5t-49.5 -123.5 z" />
<glyph unicode="&#x2099;" horiz-adv-x="704" d="M80 -227v604h139l2 -68q69 82 182 82q99 0 163.5 -62t64.5 -173v-383h-150v356q0 57 -32.5 90t-86.5 33q-82 0 -133 -68v-411h-149z" />
<glyph unicode="&#x20ac;" d="M57 512v127h158q-2 29 -2 90q0 59 2 88h-158v127h174q45 256 196 398.5t368 142.5q342 0 493 -307l-153 -91q-66 110 -144 160.5t-192 50.5q-140 0 -235 -91.5t-130 -262.5h430v-127h-446q-2 -27 -2 -80q0 -36 4 -98h444v-127h-426q36 -172 130.5 -262t232.5 -90 q113 0 190.5 50.5t143.5 160.5l151 -90q-75 -151 -201 -229.5t-294 -78.5q-215 0 -364 142.5t-196 396.5h-174z" />
<glyph unicode="&#x20b8;" d="M125 952v181h1081v-181h-440v-952h-201v952h-440zM125 1278v180h1081v-180h-1081z" />
<glyph unicode="&#x20b9;" d="M203 668v110h299q248 0 282 199h-581v137h581q-34 199 -282 199h-299v145h944v-137h-277q79 -82 97 -207h180v-137h-180q-22 -163 -142 -253.5t-317 -90.5h-49l551 -633h-230z" />
<glyph unicode="&#x20ba;" d="M125 346v172l168 98v146l-168 -98v172l168 98v524h201v-416l358 209v-172l-358 -209v-145l358 209v-172l-358 -209v-373h108q201 0 306.5 98t117.5 306l186 -15q-4 -125 -40 -226t-105.5 -179t-184 -121t-264.5 -43h-325v444z" />
<glyph unicode="&#x20bc;" d="M119 0v664q0 213 119.5 341t351.5 148v317h151v-317q237 -18 354 -146t117 -343v-664h-190v643q0 149 -65 230.5t-216 95.5v-772h-151v772q-145 -17 -212 -99t-67 -227v-643h-192z" />
<glyph unicode="&#x20bd;" d="M80 260v143h182v201h-180v168h180v686h490q232 0 357.5 -108.5t125.5 -319.5q0 -209 -124.5 -316.5t-356.5 -107.5h-299v-203h452v-143h-452v-260h-193v260h-182zM455 772h295q136 0 209 64.5t73 191.5t-73 190.5t-209 63.5h-295v-510z" />
<glyph unicode="&#x2122;" horiz-adv-x="1656" d="M74 1311v147h600v-147h-219v-598h-160v598h-221zM786 713v745h164l221 -362l220 362h165v-745h-151v477l-191 -313h-90l-188 313v-477h-150z" />
<glyph unicode="&#x25fc;" horiz-adv-x="993" d="M0 0v993h993v-993h-993z" />
<glyph horiz-adv-x="489" d="M117 1348q0 51 37.5 89t89.5 38q54 0 91.5 -37.5t37.5 -89.5q0 -53 -37.5 -90t-91.5 -37q-52 0 -89.5 37.5t-37.5 89.5zM147 0v995h197v-995h-197z" />
<glyph horiz-adv-x="489" d="M-76 -504l27 172q42 -10 76 -10q60 0 90 34t30 118v1185h197v-1202q0 -313 -281 -313q-64 0 -139 16zM117 1348q0 51 37.5 89t89.5 38q54 0 91.5 -37.5t37.5 -89.5q0 -53 -37.5 -90t-91.5 -37q-52 0 -89.5 37.5t-37.5 89.5z" />
<glyph horiz-adv-x="860" d="M94 438q0 131 36.5 231.5t113.5 161t186 60.5q162 0 248 -126t86 -327q0 -203 -86 -328.5t-248 -125.5q-163 0 -249.5 125.5t-86.5 328.5zM246 438q0 -154 47.5 -234.5t136.5 -80.5q88 0 136 80.5t48 234.5q0 153 -48 233.5t-136 80.5q-89 0 -136.5 -80.5t-47.5 -233.5z " />
<glyph horiz-adv-x="563" d="M49 618v140l262 116h119v-874h-147v727z" />
<glyph horiz-adv-x="694" d="M49 821q118 70 264 70q133 0 216 -65.5t83 -188.5q0 -93 -47 -172t-149 -184l-144 -150h351v-131h-545v113l211 227q95 101 134.5 160.5t39.5 117.5q0 63 -42.5 100.5t-117.5 37.5q-97 0 -201 -56z" />
<glyph horiz-adv-x="761" d="M57 96l78 109q102 -86 234 -86q77 0 121.5 36.5t44.5 100.5q0 60 -39.5 92.5t-104.5 32.5h-121v123h88q72 0 112 34t40 93q0 60 -41 92.5t-113 32.5q-106 0 -213 -76l-67 111q57 47 133 73.5t156 26.5q132 0 212 -64.5t80 -175.5q0 -137 -102 -200q129 -66 129 -211 q0 -119 -85.5 -187.5t-223.5 -68.5q-90 0 -176.5 30t-141.5 82z" />
<glyph horiz-adv-x="819" d="M59 168v108l408 598h184v-581h109v-125h-109v-168h-147v168h-445zM225 293h279v409z" />
<glyph horiz-adv-x="759" d="M66 98l77 105q101 -84 222 -84q78 0 124 39t46 108t-48.5 107.5t-138.5 38.5h-227v462h514v-131h-377v-208h88q165 0 251.5 -69t86.5 -198q0 -130 -84.5 -207t-224.5 -77q-89 0 -173.5 31.5t-135.5 82.5z" />
<glyph horiz-adv-x="790" d="M78 285q0 120 90 256l213 333h166l-195 -294q27 6 62 6q128 0 216.5 -82.5t88.5 -210.5q0 -130 -92.5 -218.5t-229.5 -88.5t-228 85t-91 214zM225 293q0 -75 48.5 -124.5t123.5 -49.5t124.5 49t49.5 125t-49.5 125t-124.5 49t-123.5 -49t-48.5 -125z" />
<glyph horiz-adv-x="696" d="M45 743v131h604v-106l-332 -768h-155l327 743h-444z" />
<glyph horiz-adv-x="802" d="M80 240q0 79 40.5 135t106.5 82q-58 28 -91.5 79.5t-33.5 116.5q0 107 86 172.5t213 65.5q125 0 211 -65.5t86 -172.5q0 -65 -34 -116.5t-93 -79.5q66 -27 109 -83t43 -134q0 -116 -92 -186t-230 -70q-139 0 -230 69.5t-91 186.5zM233 254q0 -67 50.5 -102t117.5 -35 t117.5 35t50.5 102t-51 102t-117 35q-67 0 -117.5 -35t-50.5 -102zM248 639q0 -58 42.5 -91.5t110.5 -33.5q67 0 110.5 34t43.5 91t-43.5 89t-110.5 32q-68 0 -110.5 -32t-42.5 -89z" />
<glyph horiz-adv-x="790" d="M72 580q0 132 92 219.5t229 87.5t228.5 -85t91.5 -214q0 -117 -90 -256l-213 -334h-166l194 295q-27 -6 -61 -6q-128 0 -216.5 83t-88.5 210zM219 580q0 -76 49.5 -125t124.5 -49t123.5 49t48.5 125q0 75 -48.5 124.5t-123.5 49.5t-124.5 -49t-49.5 -125z" />
<glyph horiz-adv-x="860" d="M94 1030q0 131 36.5 231.5t113.5 161t186 60.5q162 0 248 -126t86 -327q0 -132 -36.5 -233.5t-113 -161.5t-184.5 -60q-163 0 -249.5 126t-86.5 329zM246 1030q0 -154 47.5 -234.5t136.5 -80.5q88 0 136 80.5t48 234.5q0 153 -48 233t-136 80q-90 0 -137 -80t-47 -233z " />
<glyph horiz-adv-x="563" d="M49 1202v139l262 117h119v-874h-147v727z" />
<glyph horiz-adv-x="694" d="M49 1405q118 70 264 70q133 0 216 -65.5t83 -188.5q0 -93 -47.5 -172.5t-148.5 -184.5l-144 -149h351v-131h-545v112l211 228q95 101 134.5 160.5t39.5 117.5q0 63 -42.5 100t-117.5 37q-99 0 -201 -55z" />
<glyph horiz-adv-x="761" d="M57 680l78 108q102 -86 234 -86q77 0 121.5 37t44.5 101q0 60 -39.5 92.5t-104.5 32.5h-121v122h88q72 0 112 34t40 93q0 60 -41 92.5t-113 32.5q-108 0 -213 -75l-67 110q57 47 133.5 74t155.5 27q132 0 212 -64.5t80 -175.5q0 -138 -102 -201q129 -66 129 -211 q0 -119 -85.5 -187.5t-223.5 -68.5q-90 0 -176.5 30.5t-141.5 82.5z" />
<glyph horiz-adv-x="819" d="M59 752v108l408 598h184v-581h109v-125h-109v-168h-147v168h-445zM225 877h279v409z" />
<glyph horiz-adv-x="759" d="M66 682l77 104q101 -84 222 -84q78 0 124 39t46 109q0 69 -48.5 107t-138.5 38h-227v463h514v-131h-377v-209h88q165 0 251.5 -68.5t86.5 -197.5q0 -130 -84.5 -207.5t-224.5 -77.5q-88 0 -173 32t-136 83z" />
<glyph horiz-adv-x="790" d="M78 868q0 120 90 256l213 334h166l-195 -295q27 6 62 6q128 0 216.5 -82t88.5 -210q0 -131 -93 -219.5t-229 -88.5q-137 0 -228 85t-91 214zM225 877q0 -75 48.5 -125t123.5 -50t124.5 49.5t49.5 125.5t-49.5 125t-124.5 49t-123.5 -49t-48.5 -125z" />
<glyph horiz-adv-x="696" d="M45 1327v131h604v-106l-332 -768h-155l327 743h-444z" />
<glyph horiz-adv-x="802" d="M80 823q0 79 40.5 135t106.5 82q-58 28 -91.5 80t-33.5 117q0 107 86 172.5t213 65.5q125 0 211 -65.5t86 -172.5q0 -65 -34 -117t-93 -80q66 -27 109 -83t43 -134q0 -116 -92 -186t-230 -70q-139 0 -230 69.5t-91 186.5zM233 838q0 -67 50.5 -102.5t117.5 -35.5 t117.5 35.5t50.5 102.5t-51 102t-117 35q-67 0 -117.5 -35t-50.5 -102zM248 1223q0 -58 42.5 -91.5t110.5 -33.5q67 0 110.5 34t43.5 91t-43.5 88.5t-110.5 31.5q-68 0 -110.5 -31.5t-42.5 -88.5z" />
<glyph horiz-adv-x="790" d="M72 1165q0 132 92 220t229 88t228.5 -85t91.5 -214q0 -117 -90 -256l-213 -334h-166l194 295q-31 -7 -61 -7q-128 0 -216.5 83t-88.5 210zM219 1165q0 -76 49.5 -125t124.5 -49t123.5 49t48.5 125q0 75 -48.5 124.5t-123.5 49.5t-124.5 -49t-49.5 -125z" />
<glyph d="M113 729q0 223 61.5 392t185.5 266.5t297 97.5q172 0 296 -97.5t185.5 -266.5t61.5 -392t-61.5 -392t-185.5 -266.5t-296 -97.5q-173 0 -297 97.5t-185.5 266.5t-61.5 392zM315 729q0 -275 89.5 -422t252.5 -147t252.5 147t89.5 422t-89.5 422t-252.5 147t-252.5 -147 t-89.5 -422z" />
<glyph d="M262 1075v187l430 196h158v-1282h293v-176h-860v176h368v1079z" />
<glyph d="M186 1372q192 113 428 113q139 0 245.5 -44.5t170.5 -139t64 -228.5q0 -81 -21.5 -154.5t-69 -148t-102 -140.5t-141.5 -157l-279 -297h635v-176h-891v152l365 399q89 97 137 154t91.5 121t60 116t16.5 109q0 117 -77 184.5t-216 67.5q-166 0 -342 -93z" />
<glyph d="M127 154l104 145q81 -67 185 -106t213 -39q143 0 226 69t83 193q0 116 -72 178.5t-194 62.5h-201v164h143q131 0 207 64.5t76 179.5t-76 177.5t-207 62.5q-193 0 -366 -131l-96 145q93 78 216.5 122t254.5 44q215 0 344 -105.5t129 -287.5q0 -113 -50.5 -201.5 t-138.5 -136.5q103 -45 167.5 -135t64.5 -222q0 -198 -137.5 -311t-362.5 -113q-148 0 -285 49t-227 132z" />
<glyph d="M96 299v147l707 1012h239v-987h191v-172h-191v-299h-196v299h-750zM326 471h520v741z" />
<glyph d="M145 160l105 139q168 -145 379 -145q145 0 230 74.5t85 207.5q0 130 -85 201.5t-255 71.5h-373v749h838v-176h-651v-408h184q267 0 405 -114t138 -322q0 -214 -138.5 -339.5t-363.5 -125.5q-141 0 -276.5 51.5t-221.5 135.5z" />
<glyph d="M141 471q0 102 34 201.5t116 224.5l373 561h213l-340 -512q76 27 155 27q135 0 247.5 -61.5t179.5 -175.5t67 -257q0 -144 -68.5 -260t-188 -181t-265.5 -65q-147 0 -266.5 63t-188 177t-68.5 258zM340 477q0 -144 93 -233.5t233 -89.5q138 0 229.5 90.5t91.5 234.5 t-91.5 235t-229.5 91q-140 0 -233 -91t-93 -237z" />
<glyph d="M162 1282v176h985v-145l-563 -1313h-209l557 1282h-770z" />
<glyph d="M143 397q0 135 74.5 230.5t190.5 138.5q-104 43 -165 129t-61 197q0 119 65.5 209.5t174.5 137t242 46.5q134 0 243 -46.5t174.5 -137t65.5 -209.5q0 -111 -61.5 -197t-167.5 -129q117 -43 192.5 -138.5t75.5 -230.5q0 -130 -72 -228t-189.5 -147t-260.5 -49 q-142 0 -259.5 49t-189.5 147t-72 228zM346 414q0 -65 28.5 -117.5t75 -83.5t101.5 -47t113 -16q80 0 150 27t118.5 89t48.5 148t-48.5 147.5t-118.5 88t-150 26.5q-58 0 -113 -16t-102 -46.5t-75 -82.5t-28 -117zM375 1077q0 -106 80 -170.5t209 -64.5q131 0 210.5 64.5 t79.5 170.5q0 110 -82 172t-208 62q-125 0 -207 -62t-82 -172z" />
<glyph d="M145 979q0 218 150 362t373 144q226 0 374 -140t148 -358q0 -102 -34 -201.5t-116 -224.5l-372 -561h-213l342 514q-79 -27 -158 -27q-135 0 -247.5 61t-179.5 174.5t-67 256.5zM344 979q0 -144 92 -235t230 -91q140 0 232.5 91t92.5 237q0 144 -92.5 234t-232.5 90 q-138 0 -230 -91t-92 -235z" />
<glyph horiz-adv-x="473" d="M102 750q0 55 40 95t96 40q55 0 94 -40t39 -95q0 -56 -39 -95t-94 -39q-57 0 -96.5 39t-39.5 95z" />
</font>
</defs>
</svg>
